<svg width="46" height="46" viewBox="0 0 46 46" fill="none" xmlns="http://www.w3.org/2000/svg">
<path d="M15.3333 34.5001C16.3918 34.5001 17.25 33.642 17.25 32.5834C17.25 31.5249 16.3918 30.6667 15.3333 30.6667C14.2747 30.6667 13.4166 31.5249 13.4166 32.5834C13.4166 33.642 14.2747 34.5001 15.3333 34.5001Z" fill="#FFCA60"/>
<path d="M23 34.5001C24.0586 34.5001 24.9167 33.642 24.9167 32.5834C24.9167 31.5249 24.0586 30.6667 23 30.6667C21.9415 30.6667 21.0834 31.5249 21.0834 32.5834C21.0834 33.642 21.9415 34.5001 23 34.5001Z" fill="#FFCA60"/>
<path d="M30.6667 34.5001C31.7252 34.5001 32.5833 33.642 32.5833 32.5834C32.5833 31.5249 31.7252 30.6667 30.6667 30.6667C29.6081 30.6667 28.75 31.5249 28.75 32.5834C28.75 33.642 29.6081 34.5001 30.6667 34.5001Z" fill="#FFCA60"/>
<path d="M24.9167 9.73667V5.75H21.0834V9.73667C14.5859 10.6758 9.58337 16.2342 9.58337 23V26.8333H36.4167V23C36.4167 16.2342 31.4142 10.6758 24.9167 9.73667Z" fill="#FFCA60"/>
<path d="M15.3333 40.2501C16.3918 40.2501 17.25 39.392 17.25 38.3334C17.25 37.2749 16.3918 36.4167 15.3333 36.4167C14.2747 36.4167 13.4166 37.2749 13.4166 38.3334C13.4166 39.392 14.2747 40.2501 15.3333 40.2501Z" fill="#FFCA60"/>
<path d="M23 40.2501C24.0586 40.2501 24.9167 39.392 24.9167 38.3334C24.9167 37.2749 24.0586 36.4167 23 36.4167C21.9415 36.4167 21.0834 37.2749 21.0834 38.3334C21.0834 39.392 21.9415 40.2501 23 40.2501Z" fill="#FFCA60"/>
<path d="M30.6667 40.2501C31.7252 40.2501 32.5833 39.392 32.5833 38.3334C32.5833 37.2749 31.7252 36.4167 30.6667 36.4167C29.6081 36.4167 28.75 37.2749 28.75 38.3334C28.75 39.392 29.6081 40.2501 30.6667 40.2501Z" fill="#FFCA60"/>
</svg>
