<svg width="46" height="46" viewBox="0 0 46 46" fill="none" xmlns="http://www.w3.org/2000/svg">
<path d="M3.83331 40.25V36.4167C5.0472 36.4167 5.95762 36.0972 6.56456 35.4583C7.17151 34.8194 8.36942 34.5 10.1583 34.5C11.9472 34.5 13.1771 34.8194 13.8479 35.4583C14.5187 36.0972 15.4291 36.4167 16.5791 36.4167C17.7291 36.4167 18.6396 36.0972 19.3104 35.4583C19.9812 34.8194 21.2111 34.5 23 34.5C24.7889 34.5 26.0187 34.8194 26.6896 35.4583C27.3604 36.0972 28.2708 36.4167 29.4208 36.4167C30.5708 36.4167 31.4812 36.0972 32.1521 35.4583C32.8229 34.8194 34.0528 34.5 35.8416 34.5C37.6305 34.5 38.8285 34.8194 39.4354 35.4583C40.0423 36.0972 40.9528 36.4167 42.1666 36.4167V40.25C40.2819 40.25 39.0444 39.9306 38.4541 39.2917C37.8637 38.6528 36.9929 38.3333 35.8416 38.3333C34.6904 38.3333 33.78 38.6528 33.1104 39.2917C32.4408 39.9306 31.211 40.25 29.4208 40.25C27.6306 40.25 26.4008 39.9306 25.7312 39.2917C25.0617 38.6528 24.1513 38.3333 23 38.3333C21.8487 38.3333 20.9383 38.6528 20.2687 39.2917C19.5992 39.9306 18.3693 40.25 16.5791 40.25C14.789 40.25 13.5591 39.9306 12.8896 39.2917C12.22 38.6528 11.3096 38.3333 10.1583 38.3333C9.00704 38.3333 8.13623 38.6528 7.5459 39.2917C6.95556 39.9306 5.71804 40.25 3.83331 40.25ZM3.83331 31.625V27.7917C5.0472 27.7917 5.95762 27.4722 6.56456 26.8333C7.17151 26.1944 8.36942 25.875 10.1583 25.875C11.9472 25.875 13.1854 26.1944 13.8728 26.8333C14.5603 27.4722 15.4624 27.7917 16.5791 27.7917C17.7291 27.7917 18.6396 27.4722 19.3104 26.8333C19.9812 26.1944 21.2111 25.875 23 25.875C24.7889 25.875 26.0187 26.1944 26.6896 26.8333C27.3604 27.4722 28.2708 27.7917 29.4208 27.7917C30.5708 27.7917 31.4812 27.4722 32.1521 26.8333C32.8229 26.1944 34.0528 25.875 35.8416 25.875C37.6305 25.875 38.8285 26.1944 39.4354 26.8333C40.0423 27.4722 40.9528 27.7917 42.1666 27.7917V31.625C40.2819 31.625 39.0444 31.3056 38.4541 30.6667C37.8637 30.0278 36.9929 29.7083 35.8416 29.7083C34.6904 29.7083 33.8036 30.0278 33.1813 30.6667C32.559 31.3056 31.3055 31.625 29.4208 31.625C27.6 31.625 26.3625 31.3056 25.7082 30.6667C25.054 30.0278 24.1513 29.7083 23 29.7083C21.7861 29.7083 20.884 30.0278 20.2936 30.6667C19.7033 31.3056 18.4651 31.625 16.5791 31.625C14.6931 31.625 13.439 31.3056 12.8167 30.6667C12.1945 30.0278 11.3083 29.7083 10.1583 29.7083C9.00831 29.7083 8.13815 30.0278 7.54781 30.6667C6.95748 31.3056 5.71931 31.625 3.83331 31.625ZM32.0083 5.75C33.35 5.75 34.484 6.2215 35.4104 7.1645C36.3368 8.1075 36.8 9.23322 36.8 10.5417C36.8 11.8833 36.3368 13.0174 35.4104 13.9438C34.484 14.8701 33.35 15.3333 32.0083 15.3333C30.6666 15.3333 29.5326 14.8701 28.6062 13.9438C27.6798 13.0174 27.2166 11.8833 27.2166 10.5417C27.2166 9.23195 27.6798 8.10559 28.6062 7.16259C29.5326 6.21959 30.6666 5.74872 32.0083 5.75ZM16.5791 23C15.9083 23 15.3173 22.8965 14.8062 22.6895C14.2951 22.4825 13.768 22.2027 13.225 21.85L19.5979 15.4771L17.6812 13.5604L9.96665 10.5417V5.75L20.5083 9.58334L32.775 21.85C32.2319 22.2014 31.7048 22.4812 31.1937 22.6895C30.6826 22.8978 30.0916 23.0013 29.4208 23C28.2708 23 27.3604 22.6806 26.6896 22.0417C26.0187 21.4028 24.7889 21.0833 23 21.0833C21.2111 21.0833 19.9812 21.4028 19.3104 22.0417C18.6396 22.6806 17.7291 23 16.5791 23Z" fill="#FFCA60"/>
</svg>
