<svg width="46" height="46" viewBox="0 0 46 46" fill="none" xmlns="http://www.w3.org/2000/svg">
<path d="M18.6875 42.1666C15.4611 42.1666 12.6264 41.0888 10.1833 38.9332C7.74016 36.7776 6.26241 34.1019 5.75002 30.9062C5.68613 30.3312 5.84585 29.8277 6.22919 29.3958C6.61252 28.9639 7.09169 28.7486 7.66669 28.7499H27.8396L29.9479 8.91242C30.1077 7.47492 30.7229 6.2687 31.7937 5.29375C32.8645 4.31881 34.1499 3.83198 35.65 3.83325C37.2472 3.83325 38.6049 4.39228 39.7229 5.51034C40.841 6.62839 41.4 7.98603 41.4 9.58325V10.0624C41.4 10.6055 41.216 11.061 40.848 11.429C40.48 11.797 40.0251 11.9804 39.4834 11.9791C38.9416 11.9778 38.4867 11.7938 38.1187 11.4271C37.7507 11.0604 37.5667 10.6055 37.5667 10.0624V9.58325C37.5667 9.0402 37.3827 8.58531 37.0147 8.21859C36.6467 7.85187 36.1918 7.66787 35.65 7.66659C35.1389 7.66659 34.7077 7.83462 34.3563 8.17067C34.0049 8.50673 33.7972 8.9137 33.7334 9.39159L31.5292 30.2353C31.1778 33.6214 29.7882 36.4568 27.3604 38.7415C24.9327 41.0262 22.0417 42.1679 18.6875 42.1666ZM11.8354 25.8749C11.2924 25.8749 10.909 25.7229 10.6854 25.4188C10.4618 25.1146 10.382 24.7077 10.4459 24.1978C10.4778 23.9103 10.5021 23.6784 10.5187 23.5021C10.5353 23.3258 10.543 23.1584 10.5417 22.9999C10.5417 22.0416 10.2222 20.8277 9.58335 19.3583C8.94446 17.8888 8.62502 16.7867 8.62502 16.052C8.62502 15.7645 8.64099 15.4693 8.67294 15.1665C8.70488 14.8637 8.80071 14.5679 8.96044 14.2791C9.08821 14.0235 9.26391 13.8159 9.48752 13.6562C9.71113 13.4964 9.95071 13.4166 10.2063 13.4166C10.7174 13.4166 11.109 13.568 11.3812 13.8708C11.6534 14.1737 11.7249 14.5813 11.5959 15.0937C11.532 15.3812 11.5 15.7006 11.5 16.052C11.5 16.7867 11.8195 17.8888 12.4584 19.3583C13.0972 20.8277 13.4167 22.0416 13.4167 22.9999C13.4167 23.4791 13.3847 23.8784 13.3209 24.1978C13.257 24.5173 13.1771 24.7888 13.0813 25.0124C12.9535 25.268 12.7778 25.4756 12.5542 25.6353C12.3306 25.7951 12.091 25.8749 11.8354 25.8749ZM24.2938 25.8749C23.7507 25.8749 23.3674 25.7229 23.1438 25.4188C22.9202 25.1146 22.8403 24.7077 22.9042 24.1978C22.9361 23.9103 22.9604 23.6784 22.977 23.5021C22.9936 23.3258 23.0013 23.1584 23 22.9999C23 22.0416 22.6806 20.8277 22.0417 19.3583C21.4028 17.8888 21.0834 16.7867 21.0834 16.052C21.0834 15.7645 21.0993 15.4693 21.1313 15.1665C21.1632 14.8637 21.259 14.5679 21.4188 14.2791C21.5465 14.0235 21.7222 13.8159 21.9459 13.6562C22.1695 13.4964 22.409 13.4166 22.6646 13.4166C23.1757 13.4166 23.5674 13.568 23.8395 13.8708C24.1117 14.1737 24.1832 14.5813 24.0542 15.0937C23.9903 15.3812 23.9584 15.7006 23.9584 16.052C23.9584 16.7867 24.2778 17.8888 24.9167 19.3583C25.5556 20.8277 25.875 22.0416 25.875 22.9999C25.875 23.4791 25.8431 23.8784 25.7792 24.1978C25.7153 24.5173 25.6354 24.7888 25.5396 25.0124C25.4118 25.268 25.2361 25.4756 25.0125 25.6353C24.7889 25.7951 24.5493 25.8749 24.2938 25.8749ZM18.0646 25.8749C17.5215 25.8749 17.1382 25.7229 16.9146 25.4188C16.691 25.1146 16.6111 24.7077 16.675 24.1978C16.707 23.9103 16.7312 23.6784 16.7479 23.5021C16.7645 23.3258 16.7721 23.1584 16.7709 22.9999C16.7709 22.0416 16.4514 20.8277 15.8125 19.3583C15.1736 17.8888 14.8542 16.7867 14.8542 16.052C14.8542 15.7645 14.8702 15.4693 14.9021 15.1665C14.934 14.8637 15.0299 14.5679 15.1896 14.2791C15.3174 14.0235 15.4931 13.8159 15.7167 13.6562C15.9403 13.4964 16.1799 13.4166 16.4354 13.4166C16.9465 13.4166 17.3382 13.568 17.6104 13.8708C17.8825 14.1737 17.9541 14.5813 17.825 15.0937C17.7611 15.3812 17.7292 15.7006 17.7292 16.052C17.7292 16.7867 18.0486 17.8888 18.6875 19.3583C19.3264 20.8277 19.6459 22.0416 19.6459 22.9999C19.6459 23.4791 19.6139 23.8784 19.55 24.1978C19.4861 24.5173 19.4063 24.7888 19.3104 25.0124C19.1827 25.268 19.007 25.4756 18.7834 25.6353C18.5597 25.7951 18.3202 25.8749 18.0646 25.8749Z" fill="#FFCA60"/>
</svg>
