<svg width="288" height="127" viewBox="0 0 288 127" fill="none" xmlns="http://www.w3.org/2000/svg">
<g clip-path="url(#clip0_116_182)">
<path fill-rule="evenodd" clip-rule="evenodd" d="M81.3442 41.0707C81.3442 30.6308 77.196 20.6187 69.8153 13.2359C62.4325 5.85306 52.4204 1.70703 41.9805 1.70703H41.9783C31.5384 1.70703 21.5263 5.85306 14.1435 13.2359C6.76065 20.6187 2.61462 30.6308 2.61462 41.0707V94.7766C2.61462 102.532 5.69527 109.968 11.1762 115.449C16.6593 120.932 24.0957 124.013 31.8486 124.013C38.4656 124.013 45.4933 124.013 52.1102 124.013C59.8632 124.013 67.2995 120.932 72.7804 115.449C78.2636 109.968 81.3442 102.532 81.3442 94.7766C81.3442 78.6952 81.3442 58.5213 81.3442 41.0707Z" fill="#FFCA60"/>
<mask id="mask0_116_182" style="mask-type:luminance" maskUnits="userSpaceOnUse" x="2" y="1" width="80" height="124">
<path d="M81.3442 41.0707C81.3442 30.6308 77.196 20.6187 69.8153 13.2359C62.4325 5.85306 52.4204 1.70703 41.9805 1.70703H41.9783C31.5384 1.70703 21.5263 5.85306 14.1435 13.2359C6.76065 20.6187 2.61462 30.6308 2.61462 41.0707V94.7766C2.61462 102.532 5.69527 109.968 11.1762 115.449C16.6593 120.932 24.0957 124.013 31.8486 124.013C38.4656 124.013 45.4933 124.013 52.1102 124.013C59.8632 124.013 67.2995 120.932 72.7804 115.449C78.2636 109.968 81.3442 102.532 81.3442 94.7766C81.3442 78.6952 81.3442 58.5213 81.3442 41.0707Z" fill="white"/>
</mask>
<g mask="url(#mask0_116_182)">
<path d="M42.1 80.1942C63.7739 80.1942 81.3441 62.624 81.3441 40.9501C81.3441 19.2761 63.7739 1.70596 42.1 1.70596C20.426 1.70596 2.85583 19.2761 2.85583 40.9501C2.85583 62.624 20.426 80.1942 42.1 80.1942Z" fill="#FF7139"/>
<path d="M81.3787 106.585H2.62671V137.267H81.3787V106.585Z" fill="#0200D2"/>
<path fill-rule="evenodd" clip-rule="evenodd" d="M2.6272 86.8971C2.6272 92.3253 7.02984 96.732 12.4559 96.7403C12.4559 102.168 8.05322 106.577 2.6272 106.585V86.8971ZM32.1438 96.7568C32.1357 102.182 27.728 106.585 22.2998 106.585C16.8669 106.585 12.4559 102.173 12.4559 96.7403C12.461 96.7403 12.4661 96.7403 12.4712 96.7403C17.9041 96.7403 22.3152 92.3302 22.3152 86.8971C22.3152 92.3253 26.7178 96.732 32.1438 96.7403C32.1438 96.7453 32.1438 96.7519 32.1438 96.7568ZM51.8313 96.7403C51.8313 102.173 47.4212 106.585 41.9881 106.585C36.5595 106.585 32.1521 102.182 32.1438 96.7568C32.1438 96.7519 32.1455 96.7486 32.1483 96.7453C32.1512 96.742 32.1551 96.7403 32.159 96.7403C37.5915 96.7403 42.0031 92.3302 42.0031 86.8971C42.0031 92.3253 46.4058 96.732 51.8313 96.7403ZM51.8313 96.7403C51.8373 96.7403 51.8419 96.7403 51.8464 96.7403C57.2794 96.7403 61.6911 92.3302 61.6911 86.8971C61.6911 92.3253 66.0938 96.732 71.5193 96.7403C71.5193 102.173 67.1092 106.585 61.6761 106.585C56.243 106.585 51.8313 102.173 51.8313 96.7403ZM81.3791 106.585C75.9535 106.577 71.5509 102.168 71.5509 96.7403C76.9764 96.732 81.3791 92.3253 81.3791 86.8971V106.585Z" fill="white"/>
<path fill-rule="evenodd" clip-rule="evenodd" d="M71.4611 96.7409C71.4611 102.169 67.0584 106.576 61.6324 106.584C61.6324 112.012 66.035 116.421 71.4611 116.429V96.7409ZM41.9444 106.601C41.9525 112.026 46.3603 116.429 51.7884 116.429C57.2213 116.429 61.6324 112.017 61.6324 106.584C61.6273 106.584 61.6222 106.584 61.6171 106.584C56.1841 106.584 51.7731 102.174 51.7731 96.7409C51.7731 102.169 47.3704 106.576 41.9444 106.584C41.9444 106.589 41.9444 106.596 41.9444 106.601ZM22.2569 106.584C22.2569 112.017 26.6671 116.429 32.1002 116.429C37.5287 116.429 41.9362 112.026 41.9444 106.601C41.9444 106.596 41.9428 106.592 41.9399 106.589C41.9371 106.586 41.9332 106.584 41.9293 106.584C36.4968 106.584 32.0851 102.174 32.0851 96.7409C32.0851 102.169 27.6825 106.576 22.2569 106.584ZM22.2569 106.584C22.2509 106.584 22.2464 106.584 22.2419 106.584C16.8088 106.584 12.3972 102.174 12.3972 96.7409C12.3972 102.169 7.99451 106.576 2.56894 106.584C2.56894 112.017 6.9791 116.429 12.4122 116.429C17.8453 116.429 22.2569 112.017 22.2569 106.584ZM-7.29082 116.429C-1.86525 116.421 2.5374 112.012 2.5374 106.584C-2.88817 106.576 -7.29082 102.169 -7.29082 96.7409V116.429Z" fill="#6DBEFF"/>
<path fill-rule="evenodd" clip-rule="evenodd" d="M150.214 96.7409C150.214 102.169 145.812 106.576 140.386 106.584C140.386 112.012 144.788 116.421 150.214 116.429V96.7409ZM120.698 106.601C120.706 112.026 125.114 116.429 130.542 116.429C135.975 116.429 140.386 112.017 140.386 106.584C140.381 106.584 140.375 106.584 140.37 106.584C134.937 106.584 130.526 102.174 130.526 96.7409C130.526 102.169 126.124 106.576 120.698 106.584C120.698 106.589 120.698 106.596 120.698 106.601ZM101.01 106.584C101.01 112.017 105.42 116.429 110.853 116.429C116.282 116.429 120.689 112.026 120.698 106.601C120.698 106.596 120.696 106.592 120.693 106.589C120.69 106.586 120.686 106.584 120.683 106.584C115.25 106.584 110.838 102.174 110.838 96.7409C110.838 102.169 106.436 106.576 101.01 106.584ZM101.01 106.584C101.004 106.584 101 106.584 100.995 106.584C95.5621 106.584 91.1505 102.174 91.1505 96.7409C91.1505 102.169 86.7478 106.576 81.3222 106.584C81.3222 112.017 85.7324 116.429 91.1655 116.429C96.5986 116.429 101.01 112.017 101.01 106.584ZM71.4625 116.429C76.888 116.421 81.2907 112.012 81.2907 106.584C75.8651 106.576 71.4625 102.169 71.4625 96.7409V116.429Z" fill="#6DBEFF"/>
<path fill-rule="evenodd" clip-rule="evenodd" d="M7.74564 69.6453C7.74564 69.6453 13.4898 52.2503 41.3096 44.6964C69.1295 37.1445 45.5648 64.9644 45.5648 64.9644L28.0115 79.3257L7.63867 81.2939L7.74564 69.6453Z" fill="#FFCA60"/>
</g>
<path fill-rule="evenodd" clip-rule="evenodd" d="M78.2935 10.3991C79.8718 10.608 81.4492 10.8508 83.0275 11.1294C83.0323 11.1293 83.0371 11.1293 83.042 11.1293C83.608 11.1293 84.0678 11.5889 84.0678 12.155C84.0678 12.7117 83.6234 13.1654 83.07 13.1803C82.1224 13.1001 81.1942 13.0331 80.2852 12.9789C79.1551 12.9116 78.0549 12.8643 76.9847 12.8365C69.3897 12.6397 63.2958 13.4318 58.5106 15.0853C59.8426 12.3987 63.0176 10.4041 66.1104 9.5047C68.7155 9.55976 70.3363 9.59666 72.9414 9.81833C74.7254 9.97018 76.5095 10.163 78.2935 10.3991Z" fill="#FFCA60"/>
<path fill-rule="evenodd" clip-rule="evenodd" d="M37.6091 45.8358C40.8594 44.8013 44.244 44.0685 47.729 43.6705C48.6592 43.5644 49.5951 43.482 50.5388 43.4241C53.1072 42.5994 54.9685 40.1899 54.9685 37.349C54.9685 36.8253 54.9048 36.3162 54.786 35.829C54.7531 35.6974 54.7174 35.5673 54.6768 35.439C53.7669 32.281 52.2263 29.3892 50.1998 26.9088C50.0713 26.7511 49.9409 26.595 49.8076 26.4406C48.2119 24.4356 47.246 21.9082 47.2074 19.1581C47.2064 19.1019 47.2064 19.0456 47.2064 18.9892C47.2064 12.3769 52.575 7.00856 59.1867 7.00856C61.6527 7.00856 63.9457 7.75521 65.8525 9.03456C65.0614 9.12913 64.2964 9.30734 63.5652 9.56002C63.5468 9.55993 63.5285 9.55983 63.5091 9.55964L63.4792 9.59026C59.1963 11.1121 56.1267 15.2029 56.1267 20.0051C56.1267 21.8984 56.6038 23.6811 57.4442 25.2394C57.5823 25.5053 57.7339 25.7624 57.901 26.0096C58.0459 26.2337 58.1995 26.4521 58.3608 26.6646C58.6419 27.0372 58.9471 27.3913 59.2736 27.7248C59.999 28.6949 60.652 29.7215 61.2267 30.7967C63.0271 34.167 64.1824 38.1414 64.1824 42.2265C64.8218 50.5508 54.1572 67.3722 43.7388 75.5004C42.6232 76.3659 41.7625 77.5163 41.2487 78.8309C38.3809 86.2549 37.074 94.413 37.7067 102.871C38.2901 110.681 40.4692 117.993 43.903 124.511L40.0654 124.798C36.6326 118.28 34.4525 110.967 33.8691 103.157C33.2548 94.9327 34.4737 86.9919 37.1793 79.735C36.562 80.0692 35.9381 80.3918 35.3073 80.7019C34.9721 80.8661 34.7104 81.1501 34.5742 81.4978C32.3545 87.1938 31.1655 93.4423 31.5518 102.871C31.8725 110.695 34.3153 117.993 37.7482 124.511L33.9116 124.798C30.4778 118.28 28.2977 110.967 27.7152 103.157C27.2516 96.9621 27.3974 90.928 28.4918 85.2253C28.5691 84.837 28.4377 84.4361 28.1441 84.1705C27.8514 83.9049 27.4399 83.8121 27.0613 83.9271C22.3158 85.3344 17.2876 86.0917 12.0725 86.0917C11.1234 86.0917 7.6584 88.3481 6.72127 88.2998C5.2752 88.2244 6.36581 85.8096 4.9521 85.6223C3.81435 85.4706 1.24675 89.8163 0.132568 89.5951C1.43433 83.4509 2.7643 80.5155 3.57132 78.3364C5.20063 73.9386 7.39074 69.8112 10.0547 66.0422C13.7829 61.2918 24.8259 50.7151 36.7997 48.6277C39.34 48.0414 41.5317 47.5845 43.3177 47.7265C44.7762 47.8424 45.9131 48.2394 46.5158 49.1252C47.1205 50.0128 47.078 51.2193 46.6501 52.6218C46.1256 54.3382 45.0032 56.2932 43.4133 58.3661C40.5213 62.137 36.0984 66.2566 30.6903 69.9542C26.7117 72.7476 22.7038 74.9431 19.0455 76.4789C15.8808 77.807 12.9858 78.6474 10.5776 78.8811C10.2179 78.9072 9.94694 79.2202 9.97302 79.5805C9.999 79.9398 10.3122 80.2112 10.6721 80.1851C13.2127 80.0634 16.3073 79.3641 19.6893 78.1074C23.5277 76.6808 27.7288 74.5297 31.9315 71.7884C38.8387 67.1598 44.2227 61.8521 47.0596 57.319C48.2602 55.4017 49.0098 53.6041 49.2802 52.0403C49.571 50.3538 49.3141 48.9011 48.5423 47.7536C47.7686 46.6051 46.5158 45.8234 44.8419 45.4578C43.2877 45.1183 41.3366 45.1407 39.1034 45.5302C38.6194 45.6148 38.121 45.7167 37.6091 45.8358Z" fill="white"/>
<path d="M129.673 75.9105H139.861V75.8505C139.499 73.2116 139.262 69.6739 139.262 67.0376V46.2336C139.262 43.9567 139.442 40.8984 139.741 38.6216L139.861 37.6603H132.033C131.246 37.6603 130.577 38.236 130.459 39.015C130.22 40.8203 129.717 43.9489 129.013 45.3947C129.013 45.3947 125.851 51.9882 124.264 55.2966C124.09 55.6587 123.73 55.8932 123.329 55.9088C122.931 55.9244 122.553 55.716 122.352 55.3669C120.01 51.2952 114.324 41.4168 112.638 38.4913C112.341 37.9781 111.794 37.6603 111.203 37.6603H105.495C105.06 37.6603 104.646 37.8505 104.359 38.1761C104.073 38.5044 103.94 38.9368 103.994 39.3693C104.153 40.3696 104.31 41.5679 104.31 42.2791V75.9105H111.62L110.781 74.2901C108.082 69.2545 106.222 62.1219 106.222 56.4272V47.471C106.222 47.2834 106.344 47.1219 106.524 47.0724C106.704 47.0203 106.894 47.0959 106.99 47.2548C109.309 51.0582 116.241 62.4241 118.872 66.7328C119.078 67.0689 119.45 67.2669 119.844 67.2512C120.237 67.2304 120.591 67.0011 120.763 66.6468C122.842 62.398 128.089 51.6781 130.084 47.6012C130.17 47.4293 130.363 47.3382 130.55 47.3798C130.738 47.4241 130.871 47.5909 130.871 47.7836C130.871 51.5662 130.871 60.0222 130.871 60.0222C130.871 64.5784 130.452 70.5753 129.792 75.069L129.673 75.9105Z" fill="#FF7139"/>
<path d="M157.138 70.8723C157.138 73.8707 159.175 75.9105 162.168 75.9105H167.021L166.662 75.6082C165.823 74.8892 165.224 73.631 165.224 72.5525V57.563C165.224 53.1891 162.648 49.1747 152.094 49.1747C148.552 49.1747 145.066 50.2636 143.089 52.543C142.917 52.7436 142.888 53.0328 143.018 53.2646C143.54 54.2051 144.931 56.6982 145.876 58.3914C146.006 58.6259 146.272 58.7535 146.535 58.7119C146.801 58.6702 147.012 58.4644 147.062 58.2013C147.84 54.3823 150.362 50.1256 153.235 50.1256C157.195 50.1256 156.956 55.2836 157.015 57.4406C157.015 57.4406 157.039 58.7014 157.057 59.6653C157.067 60.2879 156.633 60.8324 156.023 60.9574C149.82 62.1974 142.719 63.0467 142.266 69.8537C141.846 76.3898 148.135 77.2286 151.076 76.7493C153.895 76.27 155.757 73.0319 157.138 70.2132V70.8723ZM156.054 61.666C156.294 61.5904 156.552 61.6321 156.755 61.7806C156.956 61.9265 157.075 62.1583 157.078 62.4084C157.101 64.2971 157.138 68.1734 157.138 68.1734C157.195 70.4528 155.335 71.7111 153.715 71.7111C152.457 71.7111 151.316 71.052 151.076 69.5541C150.57 66.8136 151.581 63.0805 156.054 61.666Z" fill="#FF7139"/>
<path d="M169.009 72.8521C169.009 73.7509 168.77 75.0091 168.407 75.8506V75.9105H177.997V75.8506C177.637 75.0091 177.395 73.7509 177.395 72.8521V63.4374C177.395 59.0609 179.258 53.0041 181.959 53.0041C184.298 53.0041 184.478 55.703 184.478 58.8213V71.771C184.478 74.2302 186.156 75.9105 188.612 75.9105H194.664L194.184 75.5483C193.406 74.8893 192.866 73.6909 192.866 72.6723V59.4803C192.866 53.6632 191.428 49.1747 184.897 49.1747C182.087 49.1747 178.984 52.8166 177.739 56.9587C177.713 57.0394 177.632 57.0941 177.546 57.0811C177.46 57.0681 177.397 56.9951 177.397 56.9091C177.395 55.2236 177.395 52.4675 177.395 50.9383C177.395 50.6674 177.275 50.4095 177.064 50.2376C176.853 50.0657 176.577 49.9953 176.311 50.05C174.639 50.3835 171.419 51.0269 169.457 51.4177C169.046 51.5011 168.691 51.7668 168.496 52.1393C168.298 52.5118 168.282 52.9547 168.449 53.3402C168.754 54.0462 169.009 54.7183 169.009 55.6431V72.8521Z" fill="#FF7139"/>
<path d="M209.841 48.9949C202.94 48.9949 196.469 52.8243 196.469 61.4002C196.469 66.2508 198.54 69.5983 201.525 71.6355C201.661 71.7267 201.736 71.883 201.726 72.0471C201.716 72.2086 201.619 72.3519 201.471 72.4248C198.488 73.9175 195.63 76.6633 195.63 79.211C195.63 81.1935 197.308 83.1108 201.921 84.2492C199.165 84.429 195.33 84.5488 195.33 87.542C195.33 91.0797 199.824 92.5177 208.82 92.5177C217.932 92.5177 223.507 88.6231 223.507 83.1108C223.507 78.1299 218.891 76.929 211.101 76.929C203.659 76.929 200.723 75.8531 201.023 74.2379C201.153 73.5346 201.669 73.0917 202.289 72.7609C202.69 72.5447 203.167 72.5264 203.583 72.7114C205.488 73.5424 207.665 73.9384 209.841 73.9384C216.794 73.9384 222.785 69.5592 222.785 61.4002C222.785 56.7866 220.863 53.4574 217.937 51.3733C217.776 51.2587 217.708 51.0555 217.768 50.868C217.828 50.6804 218 50.5528 218.198 50.5528C219.743 50.5501 222.048 50.5501 223.371 50.5501C223.944 50.5501 224.411 50.0891 224.419 49.5159C224.426 48.7553 224.439 47.7158 224.45 46.8848C224.452 46.5592 224.304 46.2518 224.049 46.0486C223.791 45.848 223.455 45.7777 223.139 45.861C219.75 46.7389 211.042 48.9949 211.042 48.9949H209.841ZM209.841 73.097C206.959 73.097 205.219 69.1997 205.219 61.4002C205.219 53.6033 206.959 49.7139 209.841 49.7139C213.199 49.7139 214.397 54.205 214.397 61.4002C214.397 69.2597 213.199 73.097 209.841 73.097ZM208.58 84.8483C214.876 84.8483 218.172 85.3277 217.992 86.823C217.812 88.4407 213.139 89.402 208.64 89.5818C204.68 89.7016 200.783 89.1024 200.244 87.3024C199.824 85.7471 201.142 84.9057 203 84.3091C204.378 84.4889 206.3 84.8483 208.58 84.8483Z" fill="#FF7139"/>
<path d="M227.675 39.0174C226.557 39.3378 225.836 40.4189 225.971 41.5756C226.047 41.896 226.091 42.1929 226.091 42.4039V73.1463C226.091 73.9278 225.911 74.889 225.612 75.608L225.492 75.9103H235.079L234.899 75.4882C234.659 74.7692 234.479 73.8079 234.479 73.0264V38.4104C234.479 38.0925 234.328 37.7904 234.073 37.6002C233.818 37.4075 233.489 37.3475 233.182 37.4335C231.741 37.8477 229.397 38.5224 227.675 39.0174Z" fill="#FF7139"/>
<path d="M251.088 70.8723C251.088 73.8707 253.125 75.9105 256.119 75.9105H260.972L260.612 75.6082C259.774 74.8892 259.174 73.631 259.174 72.5525V57.563C259.174 53.1891 256.598 49.1747 246.045 49.1747C242.502 49.1747 239.017 50.2636 237.039 52.543C236.867 52.7436 236.839 53.0328 236.969 53.2646C237.49 54.2051 238.881 56.6982 239.827 58.3914C239.957 58.6259 240.223 58.7535 240.486 58.7119C240.751 58.6702 240.962 58.4644 241.012 58.2013C241.791 54.3823 244.313 50.1256 247.186 50.1256C251.146 50.1256 250.906 55.2836 250.966 57.4406C250.966 57.4406 250.989 58.7014 251.008 59.6653C251.018 60.2879 250.583 60.8324 249.973 60.9574C243.771 62.1974 236.669 63.0467 236.216 69.8537C235.797 76.3898 242.085 77.2286 245.026 76.7493C247.845 76.27 249.708 73.0319 251.088 70.2132V70.8723ZM250.005 61.666C250.244 61.5904 250.502 61.6321 250.705 61.7806C250.906 61.9265 251.026 62.1583 251.028 62.4084C251.052 64.2971 251.088 68.1734 251.088 68.1734C251.146 70.4528 249.286 71.7111 247.665 71.7111C246.407 71.7111 245.266 71.052 245.026 69.5541C244.521 66.8136 245.532 63.0805 250.005 61.666Z" fill="#FF7139"/>
<path d="M263.148 72.852C263.148 73.7508 262.909 75.009 262.549 75.8505V75.9104H272.136V75.8505C271.774 75.009 271.534 73.7508 271.534 72.852V63.4399C271.534 59.066 273.394 53.0093 276.093 53.0093C278.13 53.0093 278.549 54.5098 278.609 57.1461V58.0266C278.609 58.1933 278.7 58.3444 278.844 58.4226C278.987 58.5007 279.164 58.4955 279.302 58.4069C282.121 56.5782 284.127 53.8064 284.127 51.7511C284.127 50.0135 282.689 48.8151 279.031 49.1746C275.999 49.482 273.321 52.5638 272.05 56.3802C272.008 56.5027 271.886 56.5782 271.758 56.5574C271.63 56.5365 271.537 56.4271 271.537 56.2969C271.534 54.7026 271.534 52.5378 271.534 51.1623C271.534 50.8367 271.388 50.5267 271.135 50.3209C270.883 50.1125 270.552 50.0291 270.231 50.0942C268.423 50.4563 265.17 51.1076 263.325 51.4775C263.002 51.54 262.724 51.7484 262.573 52.0402C262.419 52.3319 262.408 52.6784 262.541 52.9806C262.888 53.7804 263.148 54.6218 263.148 55.6482V72.852Z" fill="#FF7139"/>
<path d="M157.347 29.2491C157.159 28.8998 157.065 28.4236 157.065 28.0457V21.5625H162.186V28.0457C162.186 28.4236 162.092 28.8998 161.904 29.2491L161.873 29.2995H166.893L166.862 29.2491C166.674 28.8998 166.58 28.4236 166.58 28.0457V14.5308C166.58 14.1543 166.674 13.6768 166.862 13.3248L166.893 13.2743H161.873L161.904 13.3248C162.092 13.6768 162.186 14.1543 162.186 14.5308V20.9104H157.065V14.5308C157.065 14.1543 157.159 13.6768 157.347 13.3248L157.379 13.2743H152.358L152.389 13.3248C152.578 13.6768 152.672 14.1543 152.672 14.5308V28.0457C152.672 28.4236 152.578 28.8998 152.389 29.2491L152.358 29.2995H157.379L157.347 29.2491Z" fill="#0200D2"/>
<path d="M168.907 21.2624C168.907 27.1412 173.394 29.6516 177.854 29.6516C182.347 29.6516 186.803 27.1412 186.803 21.2624C186.803 15.4068 182.347 12.9224 177.854 12.9224C173.394 12.9224 168.907 15.4068 168.907 21.2624ZM174.367 21.2624C174.367 15.6592 176.127 13.273 177.854 13.273C179.614 13.273 181.343 15.6592 181.343 21.2624C181.343 26.8902 179.614 29.301 177.854 29.301C176.127 29.301 174.367 26.8902 174.367 21.2624Z" fill="#0200D2"/>
<path d="M187.938 16.0343C189.068 15.0561 191.737 14.228 193.338 13.8773C193.369 13.9769 193.401 14.0274 193.401 14.127L193.432 28.043C193.432 28.4195 193.338 28.8971 193.15 29.2491L193.118 29.2995H198.139L198.107 29.2491C197.919 28.8971 197.825 28.4195 197.825 28.043V14.5295C197.825 14.3289 197.856 14.1024 197.919 13.8773H197.951C199.395 14.2034 201.719 15.0056 202.787 15.8597L203.415 16.3617L202.787 13.2743H188.503L187.56 16.3617L187.938 16.0343Z" fill="#0200D2"/>
<path d="M216.29 26.7141C214.939 27.6951 212.835 28.4714 211.045 28.6474L210.01 28.7484V21.437H211.171C212.176 21.437 213.212 21.864 213.778 22.5175L214.468 23.3211V19.2527L213.841 19.9321C213.243 20.5856 212.145 21.0113 211.139 21.0113H210.01V13.951L210.543 14.0015C212.365 14.1515 214.5 14.8542 215.882 15.8092L216.352 16.1366V13.2743H205.303L205.334 13.3248C205.491 13.6754 205.617 14.1516 205.617 14.5281V28.0457C205.617 28.4223 205.491 28.8984 205.334 29.2491L205.303 29.2995H216.133L216.666 26.4386L216.29 26.7141Z" fill="#0200D2"/>
<path d="M230.516 26.7155C229.165 27.6951 227.061 28.4728 225.271 28.6474L224.234 28.7484V14.5813C224.234 14.2048 224.36 13.7273 224.518 13.3753L224.549 13.2743H219.529L219.56 13.3248C219.717 13.6768 219.843 14.1543 219.843 14.5308V28.1208C219.843 28.4468 219.748 28.8739 219.592 29.174L219.529 29.2995H230.359L230.892 26.4386L230.516 26.7155Z" fill="#0200D2"/>
<path d="M141.814 107.638C142.378 107.601 142.927 107.582 143.459 107.582C145.573 107.582 146.991 107.753 147.711 108.094C148.064 108.264 148.241 108.67 148.241 109.31C148.241 109.407 148.23 109.561 148.207 109.773C147.628 109.424 146.953 109.178 146.181 109.036C145.41 108.893 144.388 108.822 143.116 108.822C142.569 108.822 142.032 108.852 141.504 108.912L141.27 108.933L140.822 108.981C140.427 108.981 140.23 108.826 140.23 108.517C140.23 108.42 140.273 108.176 140.36 107.783C141.858 105.799 144.105 103.263 147.105 100.177C147.201 100.076 147.419 99.8437 147.759 99.4808C146.436 99.5715 145.447 99.6359 144.79 99.6739C144.037 99.7107 143.557 99.7291 143.35 99.7291C142.326 99.7291 141.814 99.3705 141.814 98.6545C141.814 98.5718 141.823 98.3579 141.842 98.0134C142.259 98.5368 143.29 98.7986 144.935 98.7986H145.803C147.144 98.7986 148.232 98.7183 149.068 98.5577C148.99 99.0812 148.906 99.4391 148.817 99.6316C148.727 99.8247 148.533 100.07 148.235 100.368C147.533 101.07 146.393 102.314 144.815 104.099C143.236 105.885 142.236 107.064 141.814 107.638Z" fill="#0200D2"/>
<path d="M159.036 103.357C157.998 105.176 156.948 106.6 155.888 107.626C154.827 108.653 153.874 109.167 153.029 109.167C152.514 109.167 152.1 108.999 151.785 108.664C151.471 108.328 151.313 107.888 151.313 107.341C151.313 107.134 151.359 106.806 151.451 106.356L151.603 105.598C151.828 104.504 151.941 103.737 151.941 103.296C151.941 103.034 151.863 102.821 151.706 102.655C152.303 102.517 152.677 102.449 152.829 102.449C153.169 102.449 153.339 102.687 153.339 103.165C153.339 103.518 153.273 104.025 153.139 104.685L152.87 106.027C152.737 106.674 152.671 107.094 152.671 107.287C152.671 107.856 152.912 108.14 153.394 108.14C153.968 108.14 154.733 107.658 155.688 106.692C156.643 105.726 157.569 104.502 158.464 103.02L159.036 103.357ZM152.905 99.8884L153.002 99.8952C153.309 99.8817 153.751 99.7266 154.327 99.4299C154.904 99.1333 155.355 98.8311 155.681 98.5234C155.479 99.1572 155.121 99.6874 154.606 100.115C153.825 100.767 153.298 101.093 153.022 101.093C152.839 101.093 152.747 100.981 152.747 100.756C152.747 100.435 152.799 100.145 152.905 99.8884Z" fill="#0200D2"/>
<path d="M159.346 105.97C160.715 102.889 162.111 101.348 163.535 101.348C164.104 101.348 164.516 101.586 164.768 102.061C165.021 102.536 165.147 103.307 165.147 104.372L165.154 105.198C165.154 106.632 165.365 107.36 165.787 107.382C166.128 107.397 166.663 106.988 167.396 106.157C168.129 105.325 168.874 104.28 169.631 103.022L170.203 103.339C169.459 104.813 168.62 106.06 167.685 107.08C166.751 108.099 165.981 108.609 165.374 108.609C164.809 108.609 164.403 108.345 164.155 107.816C163.907 107.288 163.783 106.425 163.783 105.226V104.613C163.783 103.226 163.544 102.533 163.066 102.533C162.391 102.533 161.53 103.463 160.483 105.323C159.427 107.197 158.898 108.308 158.898 108.657C158.898 108.772 158.942 108.884 159.03 108.995C158.823 109.109 158.554 109.167 158.224 109.167C157.815 109.167 157.611 108.985 157.611 108.622C157.611 108.37 157.755 107.605 158.045 106.329C158.054 106.287 158.113 105.991 158.224 105.44L159.636 98.3303C159.328 98.4455 159.018 98.5025 158.706 98.5025C157.815 98.5025 157.369 97.9766 157.369 96.9254C157.81 97.2557 158.322 97.4212 158.905 97.4212C159.728 97.4212 160.517 97.2557 161.275 96.9254L160.146 102.622C160.132 102.687 159.92 103.541 159.512 105.185C159.479 105.323 159.424 105.585 159.346 105.97Z" fill="#0200D2"/>
<path d="M175.122 104.75C174.488 106.06 173.781 107.123 173 107.94C172.22 108.758 171.519 109.167 170.899 109.167C170.399 109.167 169.992 108.99 169.68 108.637C169.368 108.283 169.211 107.824 169.211 107.26C169.211 106.535 169.455 105.204 169.941 103.268C170.075 102.744 170.141 102.414 170.141 102.276C170.141 102.139 170.098 101.99 170.011 101.829L170.961 101.822C171.37 101.822 171.574 101.98 171.574 102.297C171.574 102.493 171.441 103.059 171.175 103.995C171.092 104.274 171.039 104.467 171.017 104.572L170.913 104.991C170.711 105.83 170.61 106.469 170.61 106.909C170.61 107.588 170.844 107.927 171.313 107.927C172.079 107.927 173.053 106.978 174.233 105.081C175.198 103.536 175.68 102.436 175.68 101.781C175.68 101.689 175.652 101.597 175.597 101.506C175.974 101.401 176.293 101.348 176.555 101.348C176.959 101.348 177.162 101.472 177.162 101.719C177.162 101.779 177.143 101.866 177.106 101.98C177.088 102.049 177.044 102.216 176.975 102.482C176.966 102.533 176.92 102.718 176.837 103.038C176.778 103.263 176.734 103.442 176.707 103.575L176.637 103.905C176.486 104.661 176.411 105.369 176.411 106.029C176.411 107.037 176.654 107.541 177.141 107.541C178.215 107.541 179.58 106.029 181.233 103.005L181.811 103.348C179.928 106.97 178.206 108.781 176.645 108.781C175.593 108.781 175.067 107.869 175.067 106.046C175.067 105.701 175.085 105.27 175.122 104.75Z" fill="#0200D2"/>
<path d="M186.4 104.785C185.811 106.003 185.086 107.037 184.224 107.889C183.362 108.741 182.611 109.167 181.972 109.167C181.484 109.167 181.095 108.95 180.803 108.516C180.511 108.082 180.365 107.504 180.365 106.783C180.365 105.346 180.801 104.08 181.672 102.988C182.543 101.894 183.551 101.348 184.696 101.348C185.39 101.348 186.142 101.564 186.951 101.995C187.07 101.568 187.557 101.355 188.411 101.355C188.466 101.355 188.556 101.357 188.68 101.361C188.418 101.761 188.218 102.308 188.08 103.001L187.963 103.587C187.83 104.239 187.763 105.001 187.763 105.874C187.763 106.88 187.998 107.382 188.466 107.382C188.962 107.382 189.641 106.968 190.502 106.139C191.363 105.31 192.209 104.255 193.04 102.973L193.578 103.345C192.728 104.861 191.757 106.125 190.664 107.138C189.571 108.15 188.631 108.657 187.846 108.657C186.854 108.657 186.359 107.83 186.359 106.177C186.359 105.832 186.372 105.369 186.4 104.785ZM186.723 103.139C185.758 102.51 184.955 102.195 184.316 102.195C183.622 102.195 183.022 102.617 182.515 103.459C182.01 104.302 181.756 105.302 181.756 106.459C181.756 107.387 182.06 107.851 182.667 107.851C183.325 107.851 184.583 106.409 186.441 103.524C186.463 103.488 186.558 103.36 186.723 103.139Z" fill="#0200D2"/>
<path d="M197.47 106.266C197.594 106.492 197.657 106.689 197.657 106.859C197.657 107.309 197.277 107.806 196.516 108.35C195.756 108.895 195.064 109.167 194.439 109.167C193.888 109.167 193.439 108.921 193.092 108.429C192.746 107.938 192.572 107.305 192.572 106.529C192.572 105.665 192.799 104.437 193.254 102.843L193.571 101.686H192.407C191.92 101.686 191.532 101.754 191.243 101.892C191.509 101.409 191.729 101.105 191.904 100.981C192.079 100.858 192.375 100.797 192.793 100.797H193.833L193.971 100.32C194.182 99.6107 194.434 99.1234 194.728 98.8586C195.023 98.5938 195.463 98.4614 196.051 98.4614C196.12 98.4614 196.23 98.4657 196.382 98.4749C196.024 98.9358 195.652 99.7094 195.266 100.797H198.903C199.541 100.797 200.029 100.714 200.363 100.548C200.249 101.019 200.096 101.326 199.906 101.47C199.715 101.613 199.36 101.686 198.841 101.686H194.969C194.924 101.837 194.889 101.949 194.866 102.023C194.31 103.915 194.033 105.343 194.033 106.308C194.033 107.373 194.416 107.906 195.183 107.906C195.578 107.906 196.009 107.739 196.475 107.403C196.941 107.068 197.273 106.689 197.47 106.266Z" fill="#0200D2"/>
<path d="M204.952 104.785C204.364 106.003 203.638 107.037 202.776 107.889C201.914 108.741 201.163 109.167 200.524 109.167C200.037 109.167 199.647 108.95 199.355 108.516C199.063 108.082 198.918 107.504 198.918 106.783C198.918 105.346 199.353 104.08 200.224 102.988C201.095 101.894 202.103 101.348 203.248 101.348C203.942 101.348 204.694 101.564 205.503 101.995C205.623 101.568 206.109 101.355 206.963 101.355C207.018 101.355 207.109 101.357 207.232 101.361C206.971 101.761 206.771 102.308 206.633 103.001L206.516 103.587C206.383 104.239 206.316 105.001 206.316 105.874C206.316 106.88 206.55 107.382 207.018 107.382C207.515 107.382 208.194 106.968 209.054 106.139C209.915 105.31 210.762 104.255 211.593 102.973L212.131 103.345C211.28 104.861 210.309 106.125 209.217 107.138C208.123 108.15 207.184 108.657 206.399 108.657C205.406 108.657 204.911 107.83 204.911 106.177C204.911 105.832 204.925 105.369 204.952 104.785ZM205.276 103.139C204.31 102.51 203.507 102.195 202.868 102.195C202.174 102.195 201.574 102.617 201.068 103.459C200.562 104.302 200.309 105.302 200.309 106.459C200.309 107.387 200.612 107.851 201.219 107.851C201.877 107.851 203.135 106.409 204.993 103.524C205.016 103.488 205.11 103.36 205.276 103.139Z" fill="#0200D2"/>
<path d="M213.088 106.521C214.718 103.072 216.183 101.348 217.483 101.348C218.498 101.348 219.005 102.358 219.005 104.379L219.019 105.213C219.019 106.177 219.068 106.844 219.167 107.214C219.266 107.583 219.446 107.769 219.708 107.769C220.103 107.769 220.552 107.454 221.055 106.825C221.558 106.195 222.377 104.93 223.511 103.029L224.089 103.366C223.079 105.272 222.174 106.687 221.375 107.61C220.576 108.533 219.86 108.995 219.226 108.995C218.642 108.995 218.232 108.712 217.996 108.147C217.76 107.582 217.641 106.604 217.641 105.213L217.635 104.62C217.635 103.867 217.586 103.338 217.49 103.032C217.393 102.727 217.226 102.574 216.987 102.574C216.381 102.574 215.405 103.784 214.059 106.204C213.728 106.797 213.515 107.178 213.418 107.348C213.065 107.964 212.888 108.409 212.888 108.684C212.888 108.795 212.918 108.9 212.977 109.001C212.711 109.112 212.486 109.167 212.303 109.167C211.839 109.167 211.607 108.909 211.607 108.395C211.607 108.249 211.666 107.587 211.786 106.411L211.937 104.916C212.006 104.283 212.041 103.791 212.041 103.442C212.041 102.955 211.93 102.572 211.71 102.292C211.806 102.259 211.967 102.204 212.192 102.126C212.477 102.025 212.704 101.975 212.874 101.975C213.232 101.975 213.411 102.237 213.411 102.76C213.411 103.035 213.377 103.509 213.308 104.179C213.294 104.326 213.281 104.466 213.267 104.6L213.088 106.521Z" fill="#0200D2"/>
<path d="M224.165 106.126C224.165 107.469 224.734 108.14 225.873 108.14C226.861 108.14 227.949 107.671 229.139 106.731C230.328 105.792 231.401 104.555 232.356 103.019L232.942 103.342C232.042 105.023 230.871 106.413 229.432 107.514C227.992 108.616 226.627 109.167 225.336 109.167C224.509 109.167 223.856 108.9 223.376 108.367C222.896 107.835 222.656 107.107 222.656 106.184C222.656 104.852 223.092 103.713 223.962 102.767C224.832 101.821 225.881 101.348 227.107 101.348C227.699 101.348 228.173 101.497 228.529 101.795C228.885 102.094 229.063 102.493 229.063 102.994C229.063 103.815 228.569 104.543 227.579 105.176C226.589 105.81 225.451 106.126 224.165 106.126ZM224.22 105.465C225.18 105.415 226.003 105.14 226.69 104.641C227.376 104.141 227.72 103.564 227.72 102.909C227.72 102.323 227.458 102.03 226.934 102.03C226.31 102.03 225.734 102.364 225.205 103.033C224.677 103.702 224.349 104.513 224.22 105.465Z" fill="#0200D2"/>
<path d="M228.361 111.544C228.347 111.65 228.34 111.73 228.34 111.785C228.34 112.083 228.444 112.344 228.651 112.567C228.857 112.789 229.101 112.901 229.382 112.901C230.026 112.901 230.546 112.465 230.941 111.592C231.116 111.212 231.36 110.22 231.673 108.618L232.273 105.596C232.498 104.498 232.611 103.732 232.611 103.296C232.611 103.035 232.535 102.821 232.384 102.656C232.976 102.518 233.35 102.449 233.507 102.449C233.847 102.449 234.017 102.69 234.017 103.173C234.017 103.522 233.95 104.027 233.817 104.689L233.018 108.725C232.701 110.324 232.278 111.44 231.75 112.074C230.915 113.08 229.996 113.583 228.995 113.583C228.586 113.583 228.228 113.489 227.92 113.303C227.612 113.116 227.459 112.898 227.459 112.65C227.459 112.336 227.759 111.968 228.361 111.544ZM233.665 99.8878L233.762 99.8952C234.069 99.8768 234.513 99.7205 235.091 99.4262C235.67 99.132 236.122 98.8311 236.448 98.5234C236.247 99.1572 235.886 99.6874 235.367 100.115C234.586 100.767 234.058 101.093 233.783 101.093C233.604 101.093 233.514 100.981 233.514 100.756C233.514 100.435 233.564 100.145 233.665 99.8878Z" fill="#0200D2"/>
<path d="M243.62 103.917C243.634 104.028 243.641 104.126 243.641 104.214C243.641 105.541 243.19 106.698 242.291 107.686C241.39 108.673 240.337 109.167 239.128 109.167C238.205 109.167 237.453 108.872 236.873 108.282C236.292 107.691 236.001 106.926 236.001 105.984C236.001 104.914 236.376 103.986 237.127 103.201C237.878 102.416 238.764 102.023 239.783 102.023C239.939 102.023 240.105 102.044 240.279 102.085C240.164 101.878 240.107 101.704 240.107 101.561C240.107 101.341 240.183 101.13 240.334 100.927C241.455 101.019 242.387 101.594 243.131 102.65C243.894 103.169 244.688 103.428 245.515 103.428C246.052 103.428 246.633 103.247 247.257 102.884L247.602 103.47C246.872 103.979 246.124 104.234 245.356 104.234C244.847 104.234 244.268 104.129 243.62 103.917ZM242.057 103.332C241.675 103.217 241.324 103.034 241.002 102.781C240.768 102.731 240.573 102.706 240.417 102.705C239.636 102.706 238.944 103.057 238.34 103.759C237.737 104.462 237.435 105.263 237.434 106.163C237.435 106.816 237.617 107.351 237.982 107.771C238.347 108.191 238.816 108.401 239.39 108.402C240.167 108.401 240.835 108.01 241.395 107.227C241.955 106.444 242.235 105.511 242.236 104.427C242.235 104.05 242.175 103.686 242.057 103.332Z" fill="#0200D2"/>
<path d="M237.548 21.2861H287.868" stroke="#FF7139" stroke-width="0.918997" stroke-miterlimit="1.5" stroke-linecap="round" stroke-linejoin="round"/>
<path d="M250.79 103.454H287.865" stroke="#FF7139" stroke-width="0.801059" stroke-miterlimit="1.5" stroke-linecap="round" stroke-linejoin="round"/>
<path d="M99.3297 21.2861H144.66" stroke="#FF7139" stroke-width="0.877166" stroke-miterlimit="1.5" stroke-linecap="round" stroke-linejoin="round"/>
<path d="M99.3306 103.454H136.27" stroke="#FF7139" stroke-width="0.799592" stroke-miterlimit="1.5" stroke-linecap="round" stroke-linejoin="round"/>
</g>
<defs>
<clipPath id="clip0_116_182">
<rect width="287.735" height="126.143" fill="white" transform="translate(0.132568 0.181)"/>
</clipPath>
</defs>
</svg>
