<svg width="226" height="99" viewBox="0 0 226 99" fill="none" xmlns="http://www.w3.org/2000/svg">
<g clip-path="url(#clip0_83_313)">
<path fill-rule="evenodd" clip-rule="evenodd" d="M63.7367 32.0918C63.7367 23.8983 60.4811 16.0406 54.6886 10.2464C48.8944 4.45214 41.0367 1.19824 32.8432 1.19824H32.8415C24.648 1.19824 16.7903 4.45214 10.9961 10.2464C5.20186 16.0406 1.94797 23.8983 1.94797 32.0918V74.2413C1.94797 80.3277 4.36573 86.1638 8.66731 90.4654C12.9706 94.7687 18.8068 97.1865 24.8915 97.1865C30.0846 97.1865 35.6001 97.1865 40.7932 97.1865C46.8779 97.1865 52.7141 94.7687 57.0157 90.4654C61.3189 86.1638 63.7367 80.3277 63.7367 74.2413C63.7367 61.6203 63.7367 45.7873 63.7367 32.0918Z" fill="#FFCA60"/>
<mask id="mask0_83_313" style="mask-type:luminance" maskUnits="userSpaceOnUse" x="1" y="1" width="63" height="97">
<path d="M63.7367 32.0918C63.7367 23.8983 60.4811 16.0406 54.6886 10.2464C48.8944 4.45214 41.0367 1.19824 32.8432 1.19824H32.8415C24.648 1.19824 16.7903 4.45214 10.9961 10.2464C5.20186 16.0406 1.94797 23.8983 1.94797 32.0918V74.2413C1.94797 80.3277 4.36573 86.1638 8.66731 90.4654C12.9706 94.7687 18.8068 97.1865 24.8915 97.1865C30.0846 97.1865 35.6001 97.1865 40.7932 97.1865C46.8779 97.1865 52.7141 94.7687 57.0157 90.4654C61.3189 86.1638 63.7367 80.3277 63.7367 74.2413C63.7367 61.6203 63.7367 45.7873 63.7367 32.0918Z" fill="white"/>
</mask>
<g mask="url(#mask0_83_313)">
<path d="M32.937 62.7961C49.9472 62.7961 63.7366 49.0066 63.7366 31.9964C63.7366 14.9863 49.9472 1.19678 32.937 1.19678C15.9268 1.19678 2.1373 14.9863 2.1373 31.9964C2.1373 49.0066 15.9268 62.7961 32.937 62.7961Z" fill="#FF7139"/>
<path d="M63.7638 83.5083H1.95752V107.588H63.7638V83.5083Z" fill="#0200D2"/>
<path fill-rule="evenodd" clip-rule="evenodd" d="M1.95789 68.0566C1.95789 72.3168 5.41318 75.7753 9.67164 75.7818C9.67164 80.042 6.21635 83.5018 1.95789 83.5083V68.0566ZM25.1232 75.7948C25.1168 80.0524 21.6575 83.5083 17.3974 83.5083C13.1335 83.5083 9.67164 80.0459 9.67164 75.7818C9.67565 75.7818 9.67965 75.7818 9.68366 75.7818C13.9475 75.7818 17.4094 72.3207 17.4094 68.0566C17.4094 72.3168 20.8647 75.7753 25.1232 75.7818C25.1232 75.7857 25.1232 75.7909 25.1232 75.7948ZM40.5744 75.7818C40.5744 80.0459 37.1132 83.5083 32.8492 83.5083C28.5887 83.5083 25.1297 80.0524 25.1232 75.7948C25.1232 75.7909 25.1245 75.7883 25.1267 75.7857C25.129 75.7831 25.132 75.7818 25.1351 75.7818C29.3986 75.7818 32.861 72.3207 32.861 68.0566C32.861 72.3168 36.3163 75.7753 40.5744 75.7818ZM40.5744 75.7818C40.5791 75.7818 40.5826 75.7818 40.5862 75.7818C44.8502 75.7818 48.3126 72.3207 48.3126 68.0566C48.3126 72.3168 51.7679 75.7753 56.026 75.7818C56.026 80.0459 52.5648 83.5083 48.3008 83.5083C44.0368 83.5083 40.5744 80.0459 40.5744 75.7818ZM63.7641 83.5083C59.506 83.5018 56.0507 80.042 56.0507 75.7818C60.3088 75.7753 63.7641 72.3168 63.7641 68.0566V83.5083Z" fill="white"/>
<path fill-rule="evenodd" clip-rule="evenodd" d="M55.9803 75.7827C55.9803 80.0429 52.525 83.5014 48.2665 83.5079C48.2665 87.768 51.7218 91.2279 55.9803 91.2344V75.7827ZM32.8149 83.5209C32.8213 87.7784 36.2806 91.2344 40.5407 91.2344C44.8046 91.2344 48.2665 87.7719 48.2665 83.5079C48.2625 83.5079 48.2585 83.5079 48.2545 83.5079C43.9906 83.5079 40.5287 80.0468 40.5287 75.7827C40.5287 80.0429 37.0734 83.5014 32.8149 83.5079C32.8149 83.5118 32.8149 83.517 32.8149 83.5209ZM17.3637 83.5079C17.3637 87.7719 20.8249 91.2344 25.0889 91.2344C29.3494 91.2344 32.8085 87.7784 32.8149 83.5209C32.8149 83.517 32.8136 83.5144 32.8114 83.5118C32.8092 83.5092 32.8061 83.5079 32.803 83.5079C28.5395 83.5079 25.0771 80.0468 25.0771 75.7827C25.0771 80.0429 21.6218 83.5014 17.3637 83.5079ZM17.3637 83.5079C17.359 83.5079 17.3555 83.5079 17.352 83.5079C13.088 83.5079 9.62558 80.0468 9.62558 75.7827C9.62558 80.0429 6.17028 83.5014 1.91217 83.5079C1.91217 87.7719 5.37336 91.2344 9.63736 91.2344C13.9014 91.2344 17.3637 87.7719 17.3637 83.5079ZM-5.82599 91.2344C-1.56788 91.2279 1.88742 87.768 1.88742 83.5079C-2.37069 83.5014 -5.82599 80.0429 -5.82599 75.7827V91.2344Z" fill="#6DBEFF"/>
<path fill-rule="evenodd" clip-rule="evenodd" d="M117.788 75.7827C117.788 80.0429 114.332 83.5014 110.074 83.5079C110.074 87.768 113.529 91.2279 117.788 91.2344V75.7827ZM94.6223 83.5209C94.6286 87.7784 98.0879 91.2344 102.348 91.2344C106.612 91.2344 110.074 87.7719 110.074 83.5079C110.07 83.5079 110.066 83.5079 110.062 83.5079C105.798 83.5079 102.336 80.0468 102.336 75.7827C102.336 80.0429 98.8807 83.5014 94.6223 83.5079C94.6223 83.5118 94.6223 83.517 94.6223 83.5209ZM79.1711 83.5079C79.1711 87.7719 82.6322 91.2344 86.8962 91.2344C91.1567 91.2344 94.6158 87.7784 94.6223 83.5209C94.6223 83.517 94.621 83.5144 94.6187 83.5118C94.6165 83.5092 94.6134 83.5079 94.6104 83.5079C90.3468 83.5079 86.8844 80.0468 86.8844 75.7827C86.8844 80.0429 83.4292 83.5014 79.1711 83.5079ZM79.1711 83.5079C79.1663 83.5079 79.1628 83.5079 79.1593 83.5079C74.8953 83.5079 71.4329 80.0468 71.4329 75.7827C71.4329 80.0429 67.9776 83.5014 63.7195 83.5079C63.7195 87.7719 67.1807 91.2344 71.4447 91.2344C75.7087 91.2344 79.1711 87.7719 79.1711 83.5079ZM55.9813 91.2344C60.2394 91.2279 63.6947 87.768 63.6947 83.5079C59.4366 83.5014 55.9813 80.0429 55.9813 75.7827V91.2344Z" fill="#6DBEFF"/>
<path fill-rule="evenodd" clip-rule="evenodd" d="M5.97497 54.5176C5.97497 54.5176 10.4831 40.8657 32.3167 34.9371C54.1504 29.0103 35.6563 50.8439 35.6563 50.8439L21.8801 62.115L5.89102 63.6597L5.97497 54.5176Z" fill="#FFCA60"/>
</g>
<path fill-rule="evenodd" clip-rule="evenodd" d="M61.3425 8.01936C62.5812 8.18325 63.8191 8.37383 65.0578 8.59246C65.0616 8.59238 65.0654 8.59239 65.0692 8.59239C65.5134 8.59239 65.8742 8.95308 65.8742 9.39738C65.8742 9.83434 65.5255 10.1904 65.0911 10.2021C64.3475 10.1392 63.619 10.0865 62.9056 10.044C62.0187 9.99118 61.1552 9.95403 60.3153 9.93228C54.3546 9.77778 49.5719 10.3995 45.8164 11.6971C46.8618 9.58864 49.3536 8.02322 51.7809 7.31738C53.8254 7.36059 55.0975 7.38955 57.142 7.56353C58.5421 7.6827 59.9423 7.83401 61.3425 8.01936Z" fill="#FFCA60"/>
<path fill-rule="evenodd" clip-rule="evenodd" d="M29.4124 35.8309C31.9633 35.019 34.6196 34.4439 37.3547 34.1315C38.0848 34.0482 38.8193 33.9836 39.56 33.9382C41.5757 33.2909 43.0365 31.3998 43.0365 29.1703C43.0365 28.7592 42.9865 28.3597 42.8932 27.9774C42.8674 27.874 42.8394 27.7719 42.8075 27.6713C42.0934 25.1928 40.8843 22.9232 39.2939 20.9766C39.1931 20.8528 39.0907 20.7303 38.9861 20.6091C37.7338 19.0355 36.9757 17.052 36.9454 14.8937C36.9446 14.8495 36.9446 14.8053 36.9446 14.7611C36.9446 9.57161 41.158 5.3584 46.347 5.3584C48.2823 5.3584 50.082 5.94439 51.5784 6.94845C50.9576 7.02267 50.3572 7.16253 49.7833 7.36084C49.7689 7.36077 49.7545 7.36069 49.7394 7.36054L49.7159 7.38457C46.3546 8.57892 43.9454 11.7895 43.9454 15.5584C43.9454 17.0443 44.3199 18.4434 44.9794 19.6664C45.0878 19.8751 45.2068 20.0768 45.338 20.2708C45.4517 20.4467 45.5722 20.6182 45.6988 20.7849C45.9194 21.0773 46.159 21.3552 46.4152 21.617C46.9845 22.3783 47.497 23.184 47.948 24.0279C49.3611 26.673 50.2677 29.7921 50.2677 32.9982C50.7696 39.5314 42.3997 52.7332 34.2231 59.1124C33.3476 59.7916 32.6721 60.6945 32.2688 61.7262C30.0181 67.5527 28.9925 73.9554 29.489 80.5931C29.9469 86.7229 31.6571 92.4615 34.352 97.5769L31.3402 97.8021C28.646 92.6866 26.935 86.9472 26.4772 80.8182C25.995 74.3633 26.9517 68.1311 29.0751 62.4357C28.5907 62.698 28.101 62.9512 27.6059 63.1946C27.3429 63.3234 27.1374 63.5463 27.0306 63.8192C25.2885 68.2896 24.3553 73.1935 24.6586 80.5931C24.9102 86.7342 26.8274 92.4615 29.5216 97.5769L26.5105 97.8021C23.8156 92.6866 22.1046 86.9472 21.6475 80.8182C21.2836 75.956 21.3981 71.2203 22.257 66.7446C22.3176 66.4399 22.2145 66.1253 21.9841 65.9168C21.7544 65.7083 21.4314 65.6356 21.1343 65.7258C17.4099 66.8303 13.4637 67.4246 9.37075 67.4246C8.62587 67.4246 5.90644 69.1955 5.17096 69.1576C4.03605 69.0984 4.89199 67.2033 3.78247 67.0562C2.88954 66.9372 0.874436 70.3477 0 70.1741C1.02165 65.352 2.06544 63.0483 2.69881 61.3381C3.97753 57.8866 5.69638 54.6473 7.78714 51.6893C10.7131 47.9611 19.3799 39.6602 28.7772 38.022C30.7709 37.5619 32.491 37.2033 33.8926 37.3148C35.0373 37.4057 35.9296 37.7173 36.4026 38.4125C36.8772 39.1091 36.8438 40.0559 36.508 41.1567C36.0963 42.5038 35.2155 44.0381 33.9677 45.6649C31.698 48.6244 28.2268 51.8576 23.9824 54.7595C20.8599 56.9519 17.7144 58.6749 14.8433 59.8803C12.3596 60.9226 10.0875 61.5822 8.19749 61.7656C7.91518 61.7861 7.70254 62.0317 7.72301 62.3144C7.7434 62.5965 7.98924 62.8095 8.27162 62.789C10.2656 62.6935 12.6943 62.1446 15.3485 61.1584C18.361 60.0387 21.6581 58.3505 24.9565 56.1991C30.3774 52.5664 34.6029 48.4008 36.8294 44.8432C37.7717 43.3384 38.3599 41.9276 38.5722 40.7003C38.8004 39.3767 38.5987 38.2366 37.993 37.336C37.3858 36.4346 36.4026 35.8211 35.0889 35.5342C33.8691 35.2678 32.3378 35.2853 30.5852 35.5911C30.2054 35.6575 29.8142 35.7374 29.4124 35.8309Z" fill="white"/>
<path d="M101.666 59.4336H109.662V59.3866C109.378 57.3155 109.192 54.539 109.192 52.47V36.1425C109.192 34.3556 109.333 31.9554 109.568 30.1685L109.662 29.4141H103.518C102.901 29.4141 102.375 29.8659 102.283 30.4772C102.095 31.894 101.701 34.3495 101.149 35.4842C101.149 35.4842 98.6667 40.6589 97.4216 43.2554C97.2846 43.5396 97.0025 43.7236 96.6876 43.7359C96.3748 43.7481 96.0784 43.5846 95.9209 43.3106C94.0829 40.115 89.6197 32.3622 88.2969 30.0662C88.0639 29.6635 87.6345 29.4141 87.1704 29.4141H82.6909C82.3495 29.4141 82.0243 29.5633 81.7994 29.8189C81.5745 30.0765 81.4703 30.4159 81.5132 30.7553C81.6379 31.5404 81.7606 32.4808 81.7606 33.039V59.4336H87.4975L86.8392 58.1619C84.7211 54.2099 83.2613 48.612 83.2613 44.1427V37.1137C83.2613 36.9665 83.3574 36.8397 83.4984 36.8009C83.6395 36.76 83.7888 36.8193 83.8644 36.944C85.684 39.929 91.1244 48.8492 93.1894 52.2308C93.3509 52.4946 93.6434 52.6499 93.9521 52.6377C94.2608 52.6213 94.5388 52.4414 94.6738 52.1633C96.3053 48.8287 100.423 40.4156 101.989 37.2159C102.056 37.081 102.208 37.0094 102.355 37.0421C102.502 37.0769 102.606 37.2078 102.606 37.359C102.606 40.3277 102.606 46.9641 102.606 46.9641C102.606 50.54 102.277 55.2465 101.76 58.7732L101.666 59.4336Z" fill="#FF7139"/>
<path d="M123.221 55.4799C123.221 57.8331 124.82 59.434 127.169 59.434H130.978L130.696 59.1968C130.038 58.6325 129.567 57.645 129.567 56.7986V45.0345C129.567 41.6018 127.545 38.4512 119.263 38.4512C116.483 38.4512 113.747 39.3058 112.195 41.0947C112.06 41.2521 112.038 41.4791 112.14 41.661C112.549 42.3991 113.641 44.3557 114.383 45.6847C114.485 45.8687 114.694 45.9689 114.9 45.9361C115.109 45.9034 115.274 45.7419 115.313 45.5354C115.925 42.5382 117.904 39.1974 120.159 39.1974C123.266 39.1974 123.078 43.2455 123.125 44.9384C123.125 44.9384 123.144 45.9279 123.158 46.6844C123.166 47.1731 122.825 47.6003 122.346 47.6985C117.478 48.6717 111.905 49.3382 111.549 54.6805C111.22 59.8102 116.155 60.4685 118.464 60.0923C120.676 59.7161 122.138 57.1748 123.221 54.9626V55.4799ZM122.371 48.2546C122.559 48.1953 122.761 48.228 122.921 48.3446C123.078 48.4591 123.172 48.641 123.174 48.8373C123.193 50.3196 123.221 53.3618 123.221 53.3618C123.266 55.1507 121.806 56.1382 120.535 56.1382C119.547 56.1382 118.652 55.621 118.464 54.4454C118.067 52.2945 118.86 49.3648 122.371 48.2546Z" fill="#FF7139"/>
<path d="M132.538 57.0337C132.538 57.7391 132.35 58.7266 132.066 59.387V59.434H139.592V59.387C139.31 58.7266 139.12 57.7391 139.12 57.0337V49.6449C139.12 46.2101 140.581 41.4566 142.701 41.4566C144.537 41.4566 144.679 43.5747 144.679 46.022V56.1852C144.679 58.1153 145.995 59.434 147.923 59.434H152.673L152.296 59.1498C151.685 58.6325 151.262 57.692 151.262 56.8926V46.5393C151.262 41.9739 150.133 38.4512 145.008 38.4512C142.802 38.4512 140.367 41.3094 139.389 44.5602C139.369 44.6236 139.306 44.6665 139.238 44.6563C139.171 44.6461 139.121 44.5888 139.121 44.5213C139.119 43.1985 139.12 41.0354 139.12 39.8353C139.12 39.6227 139.025 39.4203 138.86 39.2853C138.694 39.1504 138.477 39.0952 138.269 39.1381C136.956 39.3998 134.429 39.9048 132.89 40.2115C132.567 40.2769 132.289 40.4855 132.135 40.7778C131.98 41.0702 131.968 41.4178 132.099 41.7203C132.338 42.2744 132.538 42.8019 132.538 43.5277V57.0337Z" fill="#FF7139"/>
<path d="M164.584 38.3103C159.168 38.3103 154.089 41.3157 154.089 48.0462C154.089 51.8531 155.715 54.4803 158.058 56.0791C158.164 56.1506 158.223 56.2733 158.215 56.4021C158.207 56.5289 158.131 56.6413 158.015 56.6986C155.674 57.8701 153.431 60.025 153.431 62.0245C153.431 63.5804 154.748 65.0852 158.368 65.9786C156.205 66.1197 153.196 66.2137 153.196 68.5629C153.196 71.3393 156.723 72.4679 163.782 72.4679C170.934 72.4679 175.309 69.4113 175.309 65.0852C175.309 61.1761 171.686 60.2335 165.573 60.2335C159.732 60.2335 157.428 59.3891 157.663 58.1215C157.765 57.5695 158.17 57.222 158.657 56.9623C158.972 56.7926 159.346 56.7783 159.673 56.9235C161.167 57.5757 162.877 57.8865 164.584 57.8865C170.04 57.8865 174.743 54.4496 174.743 48.0462C174.743 44.4254 173.234 41.8125 170.938 40.1769C170.811 40.0869 170.758 39.9275 170.805 39.7803C170.852 39.6331 170.987 39.5329 171.142 39.5329C172.355 39.5308 174.164 39.5308 175.203 39.5308C175.653 39.5308 176.019 39.169 176.025 38.7192C176.031 38.1222 176.041 37.3064 176.049 36.6542C176.051 36.3986 175.935 36.1574 175.734 35.9979C175.532 35.8405 175.268 35.7853 175.021 35.8507C172.361 36.5397 165.526 38.3103 165.526 38.3103H164.584ZM164.584 57.2261C162.322 57.2261 160.957 54.1675 160.957 48.0462C160.957 41.927 162.322 38.8746 164.584 38.8746C167.219 38.8746 168.16 42.3993 168.16 48.0462C168.16 54.2145 167.219 57.2261 164.584 57.2261ZM163.594 66.4488C168.536 66.4488 171.122 66.825 170.981 67.9986C170.84 69.2682 167.172 70.0227 163.641 70.1637C160.534 70.2578 157.475 69.7876 157.052 68.3748C156.723 67.1542 157.757 66.4938 159.215 66.0257C160.296 66.1667 161.805 66.4488 163.594 66.4488Z" fill="#FF7139"/>
<path d="M178.58 30.4797C177.703 30.7312 177.137 31.5797 177.243 32.4874C177.303 32.7389 177.337 32.972 177.337 33.1376V57.2648C177.337 57.8782 177.196 58.6326 176.961 59.1969L176.867 59.4341H184.391L184.25 59.1028C184.062 58.5385 183.921 57.7841 183.921 57.1708V30.0033C183.921 29.7539 183.802 29.5167 183.602 29.3675C183.401 29.2162 183.144 29.1692 182.903 29.2366C181.772 29.5617 179.932 30.0912 178.58 30.4797Z" fill="#FF7139"/>
<path d="M196.956 55.4799C196.956 57.8331 198.555 59.434 200.904 59.434H204.713L204.43 59.1968C203.772 58.6325 203.302 57.645 203.302 56.7986V45.0345C203.302 41.6018 201.28 38.4512 192.998 38.4512C190.217 38.4512 187.482 39.3058 185.93 41.0947C185.795 41.2521 185.772 41.4791 185.875 41.661C186.283 42.3991 187.375 44.3557 188.117 45.6847C188.22 45.8687 188.428 45.9689 188.635 45.9361C188.843 45.9034 189.009 45.7419 189.048 45.5354C189.659 42.5382 191.638 39.1974 193.893 39.1974C197.001 39.1974 196.813 43.2455 196.86 44.9384C196.86 44.9384 196.878 45.9279 196.892 46.6844C196.901 47.1731 196.559 47.6003 196.081 47.6985C191.213 48.6717 185.639 49.3382 185.284 54.6805C184.954 59.8102 189.89 60.4685 192.198 60.0923C194.41 59.7161 195.872 57.1748 196.956 54.9626V55.4799ZM196.105 48.2546C196.293 48.1953 196.496 48.228 196.655 48.3446C196.813 48.4591 196.907 48.641 196.909 48.8373C196.927 50.3196 196.956 53.3618 196.956 53.3618C197.001 55.1507 195.541 56.1382 194.269 56.1382C193.282 56.1382 192.386 55.621 192.198 54.4454C191.802 52.2945 192.595 49.3648 196.105 48.2546Z" fill="#FF7139"/>
<path d="M206.421 57.0331C206.421 57.7385 206.233 58.726 205.95 59.3863V59.4334H213.474V59.3863C213.19 58.726 213.002 57.7385 213.002 57.0331V49.6463C213.002 46.2135 214.462 41.46 216.58 41.46C218.179 41.46 218.508 42.6377 218.555 44.7067V45.3978C218.555 45.5286 218.626 45.6472 218.739 45.7085C218.851 45.7699 218.99 45.7658 219.099 45.6963C221.311 44.261 222.885 42.0857 222.885 40.4726C222.885 39.1089 221.757 38.1684 218.886 38.4505C216.506 38.6918 214.404 41.1105 213.407 44.1057C213.374 44.2018 213.278 44.261 213.178 44.2447C213.078 44.2283 213.004 44.1425 213.004 44.0402C213.002 42.789 213.002 41.09 213.002 40.0105C213.002 39.7549 212.887 39.5117 212.689 39.3501C212.491 39.1866 212.231 39.1211 211.98 39.1722C210.561 39.4564 208.007 39.9676 206.56 40.2579C206.306 40.307 206.087 40.4705 205.969 40.6995C205.848 40.9285 205.84 41.2004 205.944 41.4376C206.216 42.0652 206.421 42.7256 206.421 43.5312V57.0331Z" fill="#FF7139"/>
<path d="M123.386 22.8132C123.238 22.5391 123.164 22.1654 123.164 21.8688V16.7807H127.184V21.8688C127.184 22.1654 127.11 22.5391 126.962 22.8132L126.937 22.8529H130.878L130.853 22.8132C130.705 22.5391 130.632 22.1654 130.632 21.8688V11.2621C130.632 10.9665 130.705 10.5918 130.853 10.3155L130.878 10.2759H126.937L126.962 10.3155C127.11 10.5918 127.184 10.9665 127.184 11.2621V16.2689H123.164V11.2621C123.164 10.9665 123.238 10.5918 123.386 10.3155L123.41 10.2759H119.47L119.495 10.3155C119.643 10.5918 119.716 10.9665 119.716 11.2621V21.8688C119.716 22.1654 119.643 22.5391 119.495 22.8132L119.47 22.8529H123.41L123.386 22.8132Z" fill="white"/>
<path d="M132.458 16.545C132.458 21.1588 135.98 23.129 139.48 23.129C143.006 23.129 146.503 21.1588 146.503 16.545C146.503 11.9493 143.006 9.99951 139.48 9.99951C135.98 9.99951 132.458 11.9493 132.458 16.545ZM136.743 16.545C136.743 12.1474 138.124 10.2747 139.48 10.2747C140.861 10.2747 142.218 12.1474 142.218 16.545C142.218 20.9618 140.861 22.8538 139.48 22.8538C138.124 22.8538 136.743 20.9618 136.743 16.545Z" fill="white"/>
<path d="M147.394 12.442C148.281 11.6743 150.376 11.0243 151.632 10.7492C151.657 10.8273 151.681 10.8669 151.681 10.9451L151.706 21.8667C151.706 22.1622 151.632 22.537 151.484 22.8132L151.46 22.8529H155.4L155.375 22.8132C155.228 22.537 155.154 22.1622 155.154 21.8667V11.261C155.154 11.1036 155.178 10.9258 155.228 10.7492H155.252C156.386 11.0051 158.21 11.6347 159.048 12.305L159.541 12.699L159.048 10.2759H147.837L147.097 12.699L147.394 12.442Z" fill="white"/>
<path d="M169.645 20.8238C168.585 21.5937 166.934 22.2029 165.529 22.3411L164.716 22.4203V16.6822H165.628C166.417 16.6822 167.229 17.0173 167.674 17.5302L168.216 18.1609V14.9679L167.723 15.5011C167.254 16.014 166.392 16.3481 165.603 16.3481H164.716V10.807L165.135 10.8466C166.565 10.9644 168.24 11.5158 169.325 12.2653L169.694 12.5223V10.2759H161.022L161.047 10.3155C161.17 10.5907 161.269 10.9644 161.269 11.2599V21.8688C161.269 22.1644 161.17 22.5381 161.047 22.8132L161.022 22.8529H169.522L169.941 20.6075L169.645 20.8238Z" fill="white"/>
<path d="M180.81 20.8249C179.75 21.5937 178.099 22.204 176.694 22.3411L175.88 22.4203V11.3017C175.88 11.0061 175.979 10.6314 176.103 10.3551L176.128 10.2759H172.187L172.212 10.3155C172.335 10.5918 172.434 10.9665 172.434 11.2621V21.9277C172.434 22.1836 172.36 22.5188 172.237 22.7543L172.187 22.8529H180.687L181.105 20.6075L180.81 20.8249Z" fill="white"/>
<path d="M111.195 84.3344C111.637 84.3051 112.068 84.2907 112.486 84.2907C114.145 84.2907 115.258 84.4244 115.823 84.6919C116.1 84.8256 116.239 85.1441 116.239 85.6468C116.239 85.7228 116.23 85.8435 116.212 86.01C115.758 85.7363 115.228 85.5434 114.622 85.4318C114.017 85.3197 113.215 85.2639 112.217 85.2639C111.788 85.2639 111.366 85.2874 110.951 85.3341L110.768 85.3505L110.416 85.3885C110.106 85.3885 109.951 85.2668 109.951 85.0243C109.951 84.9483 109.986 84.7563 110.054 84.4485C111.229 82.8913 112.993 80.9011 115.347 78.4784C115.422 78.3995 115.594 78.2172 115.861 77.9324C114.823 78.0036 114.046 78.0541 113.53 78.084C112.939 78.1128 112.563 78.1273 112.4 78.1273C111.597 78.1273 111.195 77.8458 111.195 77.284C111.195 77.219 111.202 77.0511 111.217 76.7808C111.544 77.1916 112.353 77.397 113.644 77.397H114.325C115.378 77.397 116.232 77.334 116.888 77.208C116.827 77.6188 116.761 77.8997 116.691 78.0508C116.62 78.2023 116.468 78.3947 116.234 78.629C115.683 79.1798 114.788 80.1559 113.55 81.5573C112.311 82.9586 111.526 83.8842 111.195 84.3344Z" fill="white"/>
<path d="M124.711 80.9748C123.897 82.4026 123.073 83.5197 122.24 84.3254C121.408 85.1312 120.66 85.5344 119.997 85.5344C119.593 85.5344 119.267 85.403 119.021 85.1394C118.774 84.8763 118.65 84.5304 118.65 84.1013C118.65 83.9392 118.686 83.6813 118.758 83.3282L118.877 82.7331C119.054 81.8749 119.142 81.2731 119.142 80.9267C119.142 80.7213 119.081 80.5539 118.959 80.424C119.427 80.3158 119.721 80.2619 119.84 80.2619C120.106 80.2619 120.24 80.449 120.24 80.8238C120.24 81.1009 120.188 81.4987 120.083 82.0173L119.872 83.0703C119.768 83.5783 119.715 83.9079 119.715 84.0589C119.715 84.5054 119.905 84.7286 120.283 84.7286C120.734 84.7286 121.334 84.35 122.084 83.5918C122.833 82.8337 123.56 81.8735 124.262 80.7102L124.711 80.9748ZM119.899 78.2525L119.975 78.2578C120.217 78.2472 120.563 78.1255 121.016 77.8926C121.468 77.6598 121.822 77.4226 122.078 77.1812C121.92 77.6786 121.638 78.0947 121.235 78.43C120.622 78.9418 120.207 79.1978 119.991 79.1978C119.847 79.1978 119.775 79.1097 119.775 78.9332C119.775 78.6811 119.816 78.4541 119.899 78.2525Z" fill="white"/>
<path d="M124.955 83.0258C126.029 80.6075 127.124 79.3981 128.242 79.3981C128.689 79.3981 129.012 79.5848 129.21 79.9576C129.408 80.3309 129.507 80.9356 129.507 81.7717L129.512 82.4202C129.512 83.5449 129.678 84.1164 130.01 84.1342C130.277 84.1453 130.697 83.8244 131.272 83.1721C131.847 82.5198 132.432 81.6995 133.026 80.7119L133.475 80.9606C132.891 82.1176 132.233 83.0961 131.499 83.8966C130.766 84.6966 130.161 85.0968 129.685 85.0968C129.242 85.0968 128.923 84.8895 128.729 84.4748C128.534 84.0601 128.437 83.3828 128.437 82.4418V81.9608C128.437 80.8721 128.249 80.328 127.874 80.328C127.344 80.328 126.669 81.0578 125.847 82.5178C125.018 83.9884 124.603 84.8606 124.603 85.1344C124.603 85.2248 124.637 85.3128 124.706 85.3994C124.544 85.4894 124.333 85.5346 124.073 85.5346C123.753 85.5346 123.592 85.3922 123.592 85.1074C123.592 84.9092 123.706 84.3088 123.933 83.3073C123.94 83.2746 123.987 83.0422 124.073 82.6097L125.182 77.0299C124.94 77.1203 124.697 77.165 124.452 77.165C123.753 77.165 123.403 76.7523 123.403 75.9272C123.749 76.1865 124.151 76.3164 124.608 76.3164C125.254 76.3164 125.874 76.1865 126.469 75.9272L125.582 80.3983C125.571 80.4488 125.405 81.1194 125.085 82.4096C125.059 82.5178 125.016 82.7233 124.955 83.0258Z" fill="white"/>
<path d="M137.336 82.0683C136.838 83.0959 136.283 83.9301 135.67 84.5718C135.058 85.2135 134.508 85.5344 134.021 85.5344C133.629 85.5344 133.31 85.3959 133.064 85.1183C132.82 84.8412 132.697 84.4809 132.697 84.0378C132.697 83.4687 132.888 82.4243 133.27 80.9046C133.375 80.4938 133.427 80.2345 133.427 80.1268C133.427 80.0185 133.393 79.9016 133.324 79.7756L134.07 79.7703C134.391 79.7703 134.551 79.8944 134.551 80.1426C134.551 80.2971 134.447 80.7411 134.238 81.4752C134.173 81.6945 134.131 81.8456 134.114 81.9283L134.032 82.2574C133.874 82.9155 133.795 83.4172 133.795 83.7626C133.795 84.2952 133.978 84.5612 134.346 84.5612C134.948 84.5612 135.712 83.8165 136.638 82.3276C137.395 81.1153 137.774 80.2523 137.774 79.7376C137.774 79.6659 137.752 79.5937 137.709 79.5221C138.005 79.4393 138.255 79.3979 138.461 79.3979C138.778 79.3979 138.936 79.4951 138.936 79.689C138.936 79.7361 138.922 79.8044 138.893 79.8944C138.879 79.9483 138.844 80.0796 138.79 80.2879C138.783 80.3278 138.747 80.4731 138.682 80.7247C138.635 80.9013 138.601 81.0413 138.579 81.1456L138.525 81.405C138.406 81.9981 138.347 82.5537 138.347 83.0718C138.347 83.8627 138.538 84.2586 138.92 84.2586C139.763 84.2586 140.834 83.0718 142.132 80.6983L142.586 80.9677C141.108 83.8103 139.756 85.2318 138.531 85.2318C137.705 85.2318 137.293 84.516 137.293 83.0848C137.293 82.8145 137.307 82.4758 137.336 82.0683Z" fill="white"/>
<path d="M146.187 82.0958C145.725 83.0511 145.156 83.8627 144.479 84.5314C143.802 85.2001 143.213 85.5344 142.712 85.5344C142.329 85.5344 142.023 85.3641 141.794 85.0235C141.565 84.6829 141.451 84.2298 141.451 83.6635C141.451 82.5355 141.793 81.5425 142.476 80.6848C143.16 79.8266 143.951 79.3979 144.849 79.3979C145.394 79.3979 145.984 79.5673 146.619 79.9059C146.713 79.5711 147.095 79.4032 147.765 79.4032C147.809 79.4032 147.879 79.4052 147.976 79.4085C147.771 79.7222 147.614 80.1513 147.506 80.6954L147.414 81.1553C147.309 81.6666 147.257 82.2651 147.257 82.9501C147.257 83.7396 147.441 84.134 147.809 84.134C148.198 84.134 148.73 83.8088 149.406 83.1579C150.082 82.5075 150.746 81.6796 151.398 80.6737L151.82 80.9657C151.154 82.1554 150.391 83.1474 149.533 83.9421C148.676 84.7368 147.938 85.1342 147.322 85.1342C146.544 85.1342 146.154 84.4857 146.154 83.1878C146.154 82.9174 146.165 82.5537 146.187 82.0958ZM146.441 80.8036C145.683 80.31 145.053 80.0628 144.551 80.0628C144.006 80.0628 143.535 80.3938 143.138 81.0552C142.741 81.7167 142.543 82.5013 142.543 83.4095C142.543 84.1379 142.781 84.5016 143.257 84.5016C143.774 84.5016 144.761 83.3701 146.219 81.1062C146.237 81.0773 146.311 80.9768 146.441 80.8036Z" fill="white"/>
<path d="M154.875 83.2577C154.972 83.4348 155.021 83.5897 155.021 83.7229C155.021 84.076 154.723 84.4662 154.126 84.8933C153.53 85.3205 152.986 85.5341 152.496 85.5341C152.064 85.5341 151.712 85.3412 151.439 84.9554C151.167 84.5701 151.031 84.0727 151.031 83.4636C151.031 82.7858 151.209 81.8217 151.566 80.571L151.815 79.6627H150.901C150.519 79.6627 150.215 79.7166 149.987 79.8248C150.197 79.4453 150.369 79.2067 150.507 79.11C150.644 79.0133 150.876 78.9652 151.204 78.9652H152.02L152.129 78.5909C152.294 78.0343 152.492 77.6519 152.723 77.4441C152.954 77.2362 153.3 77.1323 153.761 77.1323C153.815 77.1323 153.902 77.1357 154.021 77.1429C153.74 77.5047 153.448 78.1118 153.145 78.9652H156C156.501 78.9652 156.883 78.9002 157.146 78.7699C157.056 79.1393 156.936 79.3803 156.786 79.4934C156.637 79.606 156.358 79.6627 155.951 79.6627H152.912C152.877 79.7816 152.849 79.8696 152.832 79.9273C152.395 81.4124 152.177 82.5332 152.177 83.2904C152.177 84.1265 152.478 84.5446 153.08 84.5446C153.39 84.5446 153.728 84.4132 154.094 84.1501C154.46 83.8869 154.72 83.5897 154.875 83.2577Z" fill="white"/>
<path d="M160.747 82.0958C160.285 83.0511 159.716 83.8627 159.039 84.5314C158.362 85.2001 157.774 85.5344 157.272 85.5344C156.889 85.5344 156.583 85.3641 156.354 85.0235C156.125 84.6829 156.011 84.2298 156.011 83.6635C156.011 82.5355 156.353 81.5425 157.036 80.6848C157.72 79.8266 158.511 79.3979 159.41 79.3979C159.954 79.3979 160.545 79.5673 161.18 79.9059C161.273 79.5711 161.655 79.4032 162.325 79.4032C162.369 79.4032 162.439 79.4052 162.537 79.4085C162.331 79.7222 162.174 80.1513 162.066 80.6954L161.974 81.1553C161.87 81.6666 161.817 82.2651 161.817 82.9501C161.817 83.7396 162.001 84.134 162.369 84.134C162.758 84.134 163.291 83.8088 163.966 83.1579C164.642 82.5075 165.307 81.6796 165.959 80.6737L166.381 80.9657C165.714 82.1554 164.952 83.1474 164.094 83.9421C163.236 84.7368 162.499 85.1342 161.882 85.1342C161.104 85.1342 160.714 84.4857 160.714 83.1878C160.714 82.9174 160.725 82.5537 160.747 82.0958ZM161.001 80.8036C160.243 80.31 159.613 80.0628 159.111 80.0628C158.566 80.0628 158.095 80.3938 157.699 81.0552C157.301 81.7167 157.103 82.5013 157.103 83.4095C157.103 84.1379 157.341 84.5016 157.817 84.5016C158.334 84.5016 159.321 83.3701 160.779 81.1062C160.797 81.0773 160.871 80.9768 161.001 80.8036Z" fill="white"/>
<path d="M167.132 83.4581C168.412 80.7512 169.561 79.3979 170.581 79.3979C171.378 79.3979 171.776 80.1907 171.776 81.7768L171.787 82.4311C171.787 83.1878 171.826 83.7117 171.903 84.0017C171.981 84.2918 172.122 84.4371 172.328 84.4371C172.638 84.4371 172.99 84.1898 173.385 83.6963C173.779 83.2022 174.422 82.2093 175.312 80.717L175.766 80.9821C174.973 82.4777 174.263 83.588 173.636 84.3125C173.009 85.037 172.447 85.3992 171.949 85.3992C171.491 85.3992 171.17 85.1775 170.984 84.7344C170.799 84.2909 170.706 83.5231 170.706 82.4311L170.701 81.9659C170.701 81.3751 170.663 80.9595 170.587 80.7199C170.511 80.4803 170.38 80.3601 170.192 80.3601C169.716 80.3601 168.95 81.3102 167.895 83.2094C167.635 83.6746 167.467 83.9738 167.391 84.1071C167.114 84.5901 166.975 84.9398 166.975 85.1558C166.975 85.2424 166.999 85.3251 167.045 85.4045C166.837 85.4911 166.66 85.5344 166.516 85.5344C166.152 85.5344 165.97 85.3324 165.97 84.9288C165.97 84.8138 166.016 84.2947 166.11 83.3715L166.229 82.1987C166.283 81.7013 166.31 81.3155 166.31 81.0413C166.31 80.6593 166.224 80.3586 166.051 80.1388C166.126 80.1133 166.253 80.07 166.429 80.0089C166.653 79.9295 166.831 79.8901 166.965 79.8901C167.246 79.8901 167.386 80.0955 167.386 80.5063C167.386 80.7223 167.359 81.0937 167.305 81.62C167.294 81.7354 167.284 81.8451 167.273 81.95L167.132 83.4581Z" fill="white"/>
<path d="M175.826 83.1483C175.826 84.2019 176.273 84.7286 177.166 84.7286C177.941 84.7286 178.796 84.3601 179.73 83.6231C180.663 82.8857 181.505 81.9149 182.254 80.7098L182.714 80.9633C182.007 82.2819 181.089 83.373 179.959 84.2375C178.829 85.1024 177.758 85.5344 176.745 85.5344C176.096 85.5344 175.583 85.3252 175.207 84.9071C174.83 84.4891 174.642 83.918 174.642 83.1935C174.642 82.1482 174.983 81.2544 175.666 80.5116C176.349 79.7693 177.172 79.3979 178.134 79.3979C178.6 79.3979 178.971 79.5148 179.251 79.7491C179.53 79.9834 179.67 80.2966 179.67 80.6896C179.67 81.3342 179.282 81.9053 178.505 82.4027C177.728 82.8996 176.835 83.1483 175.826 83.1483ZM175.869 82.6293C176.622 82.5898 177.268 82.3738 177.807 81.9822C178.346 81.5902 178.616 81.1375 178.616 80.6232C178.616 80.1633 178.41 79.9334 177.999 79.9334C177.509 79.9334 177.057 80.1956 176.642 80.7204C176.228 81.2452 175.97 81.8817 175.869 82.6293Z" fill="white"/>
<path d="M179.119 87.4004C179.108 87.4832 179.102 87.5462 179.102 87.5895C179.102 87.8233 179.184 88.0277 179.346 88.2028C179.508 88.3774 179.7 88.465 179.92 88.465C180.426 88.465 180.834 88.1225 181.144 87.4379C181.281 87.1392 181.473 86.3608 181.718 85.1038L182.189 82.7317C182.366 81.8706 182.454 81.2692 182.454 80.9267C182.454 80.7218 182.395 80.5544 182.276 80.4245C182.741 80.3162 183.035 80.2624 183.157 80.2624C183.424 80.2624 183.558 80.4514 183.558 80.83C183.558 81.1042 183.505 81.5006 183.401 82.0197L182.773 85.188C182.525 86.4426 182.193 87.3182 181.779 87.8161C181.123 88.6055 180.402 88.9999 179.616 88.9999C179.295 88.9999 179.014 88.9268 178.773 88.7806C178.531 88.6339 178.411 88.4631 178.411 88.2678C178.411 88.0219 178.646 87.7328 179.119 87.4004ZM183.282 78.252L183.357 78.2578C183.599 78.2433 183.947 78.1207 184.401 77.8898C184.855 77.6588 185.21 77.4226 185.466 77.1812C185.308 77.6786 185.024 78.0947 184.617 78.43C184.004 78.9418 183.59 79.1978 183.374 79.1978C183.233 79.1978 183.163 79.1097 183.163 78.9332C183.163 78.6811 183.203 78.4541 183.282 78.252Z" fill="white"/>
<path d="M191.095 81.414C191.106 81.5006 191.111 81.5781 191.111 81.6464C191.111 82.6884 190.757 83.5966 190.051 84.3716C189.345 85.1466 188.518 85.5339 187.569 85.5339C186.845 85.5339 186.255 85.3025 185.799 84.8392C185.343 84.3759 185.115 83.7751 185.115 83.0362C185.115 82.1962 185.409 81.4679 185.999 80.8517C186.588 80.2354 187.283 79.9271 188.083 79.9271C188.206 79.9271 188.336 79.9434 188.472 79.9761C188.382 79.8135 188.337 79.6769 188.337 79.5648C188.337 79.3921 188.397 79.2261 188.516 79.0674C189.395 79.1395 190.127 79.5903 190.711 80.4192C191.309 80.8266 191.933 81.0301 192.582 81.0301C193.003 81.0301 193.459 80.8877 193.949 80.6029L194.22 81.0628C193.647 81.4626 193.059 81.6627 192.457 81.6627C192.057 81.6627 191.603 81.58 191.095 81.414ZM189.867 80.9546C189.568 80.8642 189.293 80.7203 189.04 80.5221C188.856 80.4827 188.703 80.463 188.581 80.4625C187.968 80.463 187.425 80.7391 186.951 81.2899C186.477 81.8412 186.24 82.47 186.24 83.1766C186.24 83.6885 186.384 84.1089 186.67 84.4385C186.956 84.768 187.325 84.933 187.775 84.9335C188.384 84.933 188.909 84.6256 189.348 84.0113C189.788 83.397 190.007 82.6648 190.008 81.8143C190.007 81.5184 189.961 81.2322 189.867 80.9546Z" fill="white"/>
<path d="M186.329 16.5635H225.821" stroke="#FF7139" stroke-width="0.721249" stroke-miterlimit="1.5" stroke-linecap="round" stroke-linejoin="round"/>
<path d="M196.722 81.0508H225.819" stroke="#FF7139" stroke-width="0.628689" stroke-miterlimit="1.5" stroke-linecap="round" stroke-linejoin="round"/>
<path d="M77.8522 16.5635H113.429" stroke="#FF7139" stroke-width="0.688419" stroke-miterlimit="1.5" stroke-linecap="round" stroke-linejoin="round"/>
<path d="M77.8529 81.0508H106.844" stroke="#FF7139" stroke-width="0.627538" stroke-miterlimit="1.5" stroke-linecap="round" stroke-linejoin="round"/>
</g>
<defs>
<clipPath id="clip0_83_313">
<rect width="225.821" height="99" fill="white"/>
</clipPath>
</defs>
</svg>
