<svg width="46" height="46" viewBox="0 0 46 46" fill="none" xmlns="http://www.w3.org/2000/svg">
<g clip-path="url(#clip0_116_333)">
<path d="M23 40.2501C21.6583 40.2501 20.5243 39.7869 19.5979 38.8605C18.6715 37.9341 18.2083 36.8001 18.2083 35.4584C18.2083 34.1167 18.6715 32.9827 19.5979 32.0563C20.5243 31.1299 21.6583 30.6667 23 30.6667C24.3417 30.6667 25.4757 31.1299 26.4021 32.0563C27.3285 32.9827 27.7917 34.1167 27.7917 35.4584C27.7917 36.8001 27.3285 37.9341 26.4021 38.8605C25.4757 39.7869 24.3417 40.2501 23 40.2501ZM12.1708 29.4209L8.14583 25.3001C10.0306 23.4154 12.243 21.9223 14.7832 20.8208C17.3235 19.7194 20.0624 19.168 23 19.1667C25.9376 19.1655 28.6772 19.7245 31.2187 20.8438C33.7602 21.9632 35.972 23.4805 37.8542 25.3959L33.8292 29.4209C32.4236 28.0154 30.7944 26.9133 28.9417 26.1147C27.0889 25.3161 25.1083 24.9167 23 24.9167C20.8917 24.9167 18.9111 25.3161 17.0583 26.1147C15.2056 26.9133 13.5764 28.0154 12.1708 29.4209ZM4.025 21.2751L0 17.2501C2.93889 14.2473 6.37292 11.8994 10.3021 10.2063C14.2312 8.51328 18.4639 7.66675 23 7.66675C27.5361 7.66675 31.7687 8.51328 35.6979 10.2063C39.6271 11.8994 43.0611 14.2473 46 17.2501L41.975 21.2751C39.5153 18.8154 36.6646 16.891 33.4228 15.5021C30.1811 14.1131 26.7068 13.418 23 13.4167C19.2932 13.4155 15.8195 14.1106 12.5791 15.5021C9.33864 16.8936 6.48728 18.8179 4.025 21.2751Z" fill="#FFCA60"/>
</g>
<defs>
<clipPath id="clip0_116_333">
<rect width="46" height="46" fill="white"/>
</clipPath>
</defs>
</svg>
