<svg width="46" height="46" viewBox="0 0 46 46" fill="none" xmlns="http://www.w3.org/2000/svg">
<path d="M17.25 42.1666C16.1958 42.1666 15.2937 41.7916 14.5437 41.0415C13.7936 40.2914 13.4179 39.3887 13.4167 38.3333V30.6666H10.35C9.07222 30.6666 7.98611 30.2194 7.09167 29.3249C6.19722 28.4305 5.75 27.3444 5.75 26.0666C5.75 25.1402 6.00556 24.286 6.51667 23.504C7.02778 22.722 7.69861 22.1387 8.52917 21.7541L21.0833 16.1958V14.9499C19.9333 14.5346 19.0069 13.8402 18.3042 12.8665C17.6014 11.8928 17.25 10.7984 17.25 9.58325C17.25 7.98603 17.809 6.62839 18.9271 5.51034C20.0451 4.39228 21.4028 3.83325 23 3.83325C24.15 3.83325 25.2042 4.1527 26.1625 4.79159C27.1208 5.43047 27.8236 6.26103 28.2708 7.28325L28.4625 8.09784C28.4625 8.64089 28.2785 9.09642 27.9105 9.46442C27.5425 9.83242 27.0876 10.0158 26.5458 10.0145C26.1306 10.0145 25.7715 9.9027 25.4687 9.67909C25.1658 9.45547 24.9339 9.16797 24.7729 8.81659C24.6119 8.4652 24.3723 8.186 24.0542 7.979C23.736 7.772 23.3846 7.66786 23 7.66659C22.4569 7.66659 22.0021 7.85059 21.6353 8.21859C21.2686 8.58659 21.0846 9.04147 21.0833 9.58325C21.0821 10.125 21.2661 10.5806 21.6353 10.9498C22.0046 11.3191 22.4595 11.5025 23 11.4999C23.5405 11.4974 23.996 11.6814 24.3666 12.0519C24.7371 12.4225 24.9205 12.8774 24.9167 13.4166V16.1958L37.4708 21.7541C38.3014 22.1374 38.9722 22.7207 39.4833 23.504C39.9944 24.2873 40.25 25.1415 40.25 26.0666C40.25 27.3444 39.8028 28.4305 38.9083 29.3249C38.0139 30.2194 36.9278 30.6666 35.65 30.6666H32.5833V38.3333C32.5833 39.3874 32.2083 40.2902 31.4582 41.0415C30.7082 41.7928 29.8054 42.1679 28.75 42.1666H17.25ZM10.35 26.8333H13.9438C14.2951 26.2583 14.7583 25.7951 15.3333 25.4437C15.9083 25.0923 16.5472 24.9166 17.25 24.9166H28.75C29.4528 24.9166 30.0917 25.0923 30.6667 25.4437C31.2417 25.7951 31.7049 26.2583 32.0563 26.8333H35.65C35.8736 26.8333 36.0576 26.7534 36.202 26.5937C36.3464 26.4339 36.4179 26.2263 36.4167 25.9708C36.4167 25.811 36.3771 25.6749 36.2978 25.5625C36.2186 25.4501 36.0985 25.3625 35.9375 25.2999L23 19.5499L10.0625 25.2999C9.90278 25.3638 9.78331 25.452 9.70408 25.5644C9.62486 25.6769 9.58461 25.8123 9.58333 25.9708C9.58333 26.2263 9.65553 26.4339 9.79992 26.5937C9.94431 26.7534 10.1277 26.8333 10.35 26.8333Z" fill="#FFCA60"/>
</svg>
