<svg width="24" height="24" viewBox="0 0 24 24" fill="none" xmlns="http://www.w3.org/2000/svg">
<path d="M14.25 4.5C13.0163 4.5 12 5.51625 12 6.75H7.5V15.75H21V6.75H16.5C16.5 5.51625 15.4837 4.5 14.25 4.5ZM3 5.25V6.75H3.75C4.16625 6.75 4.5 7.08375 4.5 7.5V15.75C4.5 17.4075 5.8425 18.75 7.5 18.75H21V17.25H7.5C6.60675 17.25 6 16.6432 6 15.75V7.5C6 6.26625 4.98375 5.25 3.75 5.25H3ZM18.375 18.75C18.0766 18.75 17.7905 18.8685 17.5795 19.0795C17.3685 19.2905 17.25 19.5766 17.25 19.875C17.25 20.1734 17.3685 20.4595 17.5795 20.6705C17.7905 20.8815 18.0766 21 18.375 21C18.6734 21 18.9595 20.8815 19.1705 20.6705C19.3815 20.4595 19.5 20.1734 19.5 19.875C19.5 19.5766 19.3815 19.2905 19.1705 19.0795C18.9595 18.8685 18.6734 18.75 18.375 18.75ZM9.375 18.75C9.07663 18.75 8.79048 18.8685 8.5795 19.0795C8.36853 19.2905 8.25 19.5766 8.25 19.875C8.25 20.1734 8.36853 20.4595 8.5795 20.6705C8.79048 20.8815 9.07663 21 9.375 21C9.67337 21 9.95952 20.8815 10.1705 20.6705C10.3815 20.4595 10.5 20.1734 10.5 19.875C10.5 19.5766 10.3815 19.2905 10.1705 19.0795C9.95952 18.8685 9.67337 18.75 9.375 18.75ZM14.25 6C14.6663 6 15 6.33375 15 6.75H13.5C13.5 6.33375 13.8337 6 14.25 6ZM9 8.25H19.5V14.25H9V8.25Z" fill="white"/>
</svg>
