<svg width="24" height="25" viewBox="0 0 24 25" fill="none" xmlns="http://www.w3.org/2000/svg">
<path fill-rule="evenodd" clip-rule="evenodd" d="M14 4.17188C14.7956 4.17188 15.5587 4.48795 16.1213 5.05055C16.6839 5.61316 17 6.37623 17 7.17188H20C20.5304 7.17188 21.0391 7.38259 21.4142 7.75766C21.7893 8.13273 22 8.64144 22 9.17188V19.1719C22 19.7023 21.7893 20.211 21.4142 20.5861C21.0391 20.9612 20.5304 21.1719 20 21.1719H4C3.46957 21.1719 2.96086 20.9612 2.58579 20.5861C2.21071 20.211 2 19.7023 2 19.1719V9.17188C2 8.64144 2.21071 8.13273 2.58579 7.75766C2.96086 7.38259 3.46957 7.17188 4 7.17188H7C7 6.37623 7.31607 5.61316 7.87868 5.05055C8.44129 4.48795 9.20435 4.17188 10 4.17188H14ZM15 9.17188H9V19.1719H15V9.17188ZM20 9.17188H17V19.1719H20V9.17188ZM7 9.17188H4V19.1719H7V9.17188ZM14 6.17188H10C9.75507 6.17191 9.51866 6.26183 9.33563 6.42459C9.15259 6.58735 9.03566 6.81162 9.007 7.05487L9 7.17188H15C15 6.92694 14.91 6.69054 14.7473 6.5075C14.5845 6.32447 14.3603 6.20753 14.117 6.17887L14 6.17188Z" fill="white"/>
</svg>
