<svg width="46" height="46" viewBox="0 0 46 46" fill="none" xmlns="http://www.w3.org/2000/svg">
<path d="M40.2374 34.5H5.76252C4.61587 34.4986 3.5166 34.0424 2.7058 33.2316C1.895 32.4208 1.43887 31.3216 1.43744 30.1749V11.5126C1.43887 10.3659 1.895 9.26666 2.7058 8.45586C3.5166 7.64506 4.61587 7.18893 5.76252 7.1875H40.2374C41.384 7.18893 42.4833 7.64506 43.2941 8.45586C44.1049 9.26666 44.561 10.3659 44.5624 11.5126V30.1749C44.561 31.3216 44.1049 32.4208 43.2941 33.2316C42.4833 34.0424 41.384 34.4986 40.2374 34.5Z" fill="#FFCA60"/>
<path d="M11.4999 37.375H34.4999Z" fill="#FFCA60"/>
<path d="M11.4999 37.375H34.4999" stroke="#FFCA60" stroke-width="2.875" stroke-miterlimit="10" stroke-linecap="round"/>
</svg>
