<svg width="24" height="24" viewBox="0 0 24 24" fill="none" xmlns="http://www.w3.org/2000/svg">
<path fill-rule="evenodd" clip-rule="evenodd" d="M12 1.25C17.937 1.25 22.75 6.063 22.75 12C22.75 17.937 17.937 22.75 12 22.75C10.14 22.75 8.39002 22.277 6.86302 21.445L2.12302 22.24C2.00619 22.2595 1.8864 22.251 1.77347 22.2153C1.66053 22.1796 1.55766 22.1177 1.47327 22.0346C1.38889 21.9514 1.32539 21.8495 1.28797 21.7371C1.25056 21.6248 1.24029 21.5051 1.25802 21.388L2.05802 16.098C1.52209 14.7983 1.24753 13.4058 1.25002 12C1.25002 6.063 6.06302 1.25 12 1.25ZM7.94302 6.7C7.20802 6.7 6.59902 7.32 6.71302 8.086C6.92902 9.522 7.56702 12.168 9.46502 14.08C11.449 16.079 14.288 16.934 15.825 17.271C16.621 17.446 17.3 16.816 17.3 16.039V14.215C17.3 14.1544 17.2817 14.0952 17.2474 14.0452C17.2132 13.9952 17.1646 13.9568 17.108 13.935L15.148 13.182C15.0951 13.1618 15.0376 13.1569 14.982 13.168L13.005 13.554C11.73 12.894 10.958 12.154 10.495 11.039L10.867 9.024C10.877 8.97039 10.8721 8.91507 10.853 8.864L10.118 6.895C10.0967 6.8379 10.0585 6.78865 10.0084 6.75382C9.95842 6.71898 9.89897 6.70021 9.83802 6.7H7.94302Z" fill="white"/>
</svg>
